<?xml version="1.0" encoding="UTF-8"?>
<svg xmlns="http://www.w3.org/2000/svg" xmlns:xlink="http://www.w3.org/1999/xlink" width="px" height="px" viewBox="0 0 250 250" version="1.1">
<g id="surface1">
<path style=" stroke:none;fill-rule:nonzero;fill:rgb(99.607843%,94.509804%,91.37255%);fill-opacity:1;" d="M 158.308594 134.234375 C 164.40625 140.722656 167.070312 148.199219 167.5 157 C 166.410156 158.089844 163.816406 157.59375 162.296875 157.601562 C 161.554688 157.609375 161.554688 157.609375 160.796875 157.617188 C 159.136719 157.632812 157.480469 157.644531 155.820312 157.65625 C 154.652344 157.667969 153.484375 157.679688 152.320312 157.691406 C 149.851562 157.710938 147.382812 157.730469 144.914062 157.75 C 141.820312 157.773438 138.730469 157.800781 135.636719 157.832031 C 124.207031 157.933594 112.777344 158.019531 101.347656 158.042969 C 100.398438 158.042969 99.453125 158.046875 98.503906 158.050781 C 93.308594 158.070312 88.179688 157.972656 83 157.5 C 82.617188 149.476562 84.796875 142.539062 90.125 136.4375 C 90.90625 135.617188 91.699219 134.804688 92.5 134 C 92.882812 133.613281 93.261719 133.226562 93.65625 132.828125 C 100.488281 126.273438 109.671875 122.664062 119 121.5 C 119.410156 121.433594 119.816406 121.367188 120.238281 121.296875 C 133.710938 119.488281 148.59375 125.125 158.308594 134.234375 Z M 99.5 134 C 99.335938 134.328125 99.171875 134.660156 99 135 C 99.496094 134.835938 99.988281 134.671875 100.5 134.5 C 100.171875 134.335938 99.839844 134.171875 99.5 134 Z M 98 135 C 98.164062 135.328125 98.328125 135.660156 98.5 136 C 98.664062 135.671875 98.828125 135.339844 99 135 C 98.671875 135 98.339844 135 98 135 Z M 97.5 136 C 95.28125 138.472656 95.28125 138.472656 94 141.5 C 94.144531 142.171875 94.308594 142.839844 94.5 143.5 C 95.003906 142.53125 95.503906 141.5625 96 140.59375 C 96.277344 140.054688 96.558594 139.515625 96.84375 138.960938 C 97.601562 137.539062 97.601562 137.539062 97.5 136 Z M 93.5 143.5 C 94 145 94 145 94 145 Z M 93.5 143.5 "/>
<path style=" stroke:none;fill-rule:nonzero;fill:rgb(27.843139%,11.764706%,9.019608%);fill-opacity:1;" d="M 77.996094 158.921875 C 78.414062 158.921875 78.828125 158.917969 79.261719 158.917969 C 80.667969 158.910156 82.074219 158.90625 83.484375 158.902344 C 84.488281 158.898438 85.496094 158.894531 86.5 158.890625 C 89.8125 158.878906 93.121094 158.871094 96.429688 158.863281 C 97.570312 158.859375 98.707031 158.859375 99.847656 158.855469 C 104.578125 158.84375 109.3125 158.835938 114.046875 158.828125 C 120.835938 158.820312 127.625 158.804688 134.417969 158.777344 C 139.1875 158.757812 143.957031 158.746094 148.730469 158.746094 C 151.582031 158.742188 154.433594 158.738281 157.285156 158.71875 C 159.964844 158.707031 162.648438 158.703125 165.328125 158.707031 C 166.3125 158.707031 167.300781 158.703125 168.285156 158.695312 C 169.628906 158.683594 170.972656 158.6875 172.316406 158.695312 C 172.707031 158.6875 173.097656 158.683594 173.5 158.675781 C 175.488281 158.703125 176.40625 158.925781 177.992188 160.160156 C 179 161.5 179 161.5 179.28125 163.25 C 178.957031 165.261719 178.449219 166.089844 177 167.5 C 175.152344 168.117188 173.449219 168.074219 171.523438 168.070312 C 170.910156 168.074219 170.910156 168.074219 170.285156 168.074219 C 168.90625 168.078125 167.527344 168.078125 166.152344 168.082031 C 165.167969 168.082031 164.179688 168.085938 163.195312 168.089844 C 160.515625 168.09375 157.832031 168.097656 155.152344 168.101562 C 153.480469 168.101562 151.804688 168.105469 150.128906 168.105469 C 144.894531 168.113281 139.65625 168.117188 134.421875 168.121094 C 128.375 168.121094 122.324219 168.128906 116.277344 168.144531 C 111.605469 168.15625 106.933594 168.160156 102.257812 168.160156 C 99.46875 168.160156 96.675781 168.164062 93.882812 168.175781 C 91.257812 168.183594 88.632812 168.183594 86.003906 168.179688 C 85.042969 168.179688 84.078125 168.179688 83.113281 168.183594 C 81.796875 168.191406 80.480469 168.1875 79.167969 168.183594 C 78.785156 168.1875 78.402344 168.191406 78.011719 168.195312 C 75.636719 168.175781 74.019531 167.746094 72 166.5 C 70.898438 165.160156 71 164.480469 71.09375 162.71875 C 71.488281 161.050781 71.648438 160.472656 73 159.5 C 74.574219 158.710938 76.265625 158.925781 77.996094 158.921875 Z M 77.996094 158.921875 "/>
<path style=" stroke:none;fill-rule:nonzero;fill:rgb(99.215686%,95.294118%,92.941177%);fill-opacity:1;" d="M 97.683594 83.84375 C 99 84 99 84 99.847656 84.84375 C 102.289062 88.792969 104.636719 93.207031 104 98 C 103.285156 100.507812 102.390625 102.953125 101.480469 105.390625 C 101.332031 105.820312 101.183594 106.246094 101.03125 106.6875 C 100.824219 107.25 100.824219 107.25 100.609375 107.824219 C 100.441406 109.601562 101.050781 110.511719 102 112 C 103.332031 113.304688 103.332031 113.304688 104.84375 114.4375 C 105.339844 114.828125 105.835938 115.21875 106.351562 115.621094 C 106.917969 116.054688 106.917969 116.054688 107.5 116.5 C 107.335938 117.488281 107.171875 118.480469 107 119.5 C 105.738281 119.976562 105.199219 120.089844 103.945312 119.53125 C 100.730469 117.335938 96.902344 114.507812 96 110.5 C 95.789062 107.003906 96.558594 104.667969 97.933594 101.5 C 99.121094 98.601562 99.476562 96.179688 98.597656 93.085938 C 98.332031 92.488281 98.332031 92.488281 98.0625 91.875 C 97.886719 91.46875 97.714844 91.066406 97.535156 90.648438 C 97.191406 89.90625 96.824219 89.171875 96.4375 88.453125 C 95.820312 87.109375 95.902344 85.957031 96 84.5 C 96.5 84 96.5 84 97.683594 83.84375 Z M 97.683594 83.84375 "/>
<path style=" stroke:none;fill-rule:nonzero;fill:rgb(99.215686%,95.294118%,92.941177%);fill-opacity:1;" d="M 87.6875 86.851562 C 89 87 89 87 89.828125 87.773438 C 92.3125 91.671875 94.613281 96.265625 94 101 C 93.425781 103.378906 92.691406 105.589844 91.65625 107.8125 C 90.808594 109.988281 90.703125 111.175781 91 113.5 C 92.25 115.433594 93.472656 116.519531 95.375 117.78125 C 96.613281 118.621094 96.953125 118.886719 97.5625 120.3125 C 97.5 121.5 97.5 121.5 96.78125 122.40625 C 96.394531 122.699219 96.394531 122.699219 96 123 C 92.261719 121.964844 89.492188 119.574219 87.234375 116.4375 C 85.90625 114.007812 85.515625 111.734375 86.285156 108.984375 C 86.796875 107.542969 87.363281 106.125 87.933594 104.703125 C 89.238281 101.285156 89.59375 98.335938 88.0625 94.875 C 87.886719 94.46875 87.714844 94.066406 87.535156 93.648438 C 87.191406 92.90625 86.824219 92.171875 86.4375 91.453125 C 85.820312 90.109375 85.902344 88.957031 86 87.5 C 86.5 87 86.5 87 87.6875 86.851562 Z M 87.6875 86.851562 "/>
<path style=" stroke:none;fill-rule:nonzero;fill:rgb(99.215686%,95.294118%,92.54902%);fill-opacity:1;" d="M 107.183594 82.328125 C 108.5 82.5 108.5 82.5 109.347656 83.46875 C 109.582031 83.902344 109.820312 84.335938 110.0625 84.78125 C 110.4375 85.46875 110.4375 85.46875 110.820312 86.171875 C 111.046875 86.613281 111.269531 87.050781 111.5 87.5 C 111.800781 88.078125 112.097656 88.65625 112.40625 89.25 C 114.074219 94.167969 113.210938 97.683594 111.5 102.5 C 110.246094 105.679688 110.246094 105.679688 110.375 108.96875 C 110.582031 109.308594 110.789062 109.648438 111 110 C 111.164062 110.496094 111.328125 110.988281 111.5 111.5 C 112.382812 112.003906 112.382812 112.003906 113.5 112.5 C 115.09375 113.375 115.09375 113.375 116.5 114.5 C 116.9375 116.125 116.9375 116.125 117 117.5 C 115.5 118.5 115.5 118.5 114.3125 118.421875 C 110.890625 117.324219 108.125 114.617188 106.4375 111.5 C 105.253906 109.085938 105.0625 106.5625 105.785156 103.984375 C 106.164062 102.964844 106.570312 101.96875 107 100.96875 C 108.554688 97.339844 109.066406 94.511719 107.59375 90.6875 C 107.425781 90.238281 107.257812 89.789062 107.085938 89.324219 C 106.523438 87.964844 106.523438 87.964844 105.671875 86.667969 C 105 85.5 105 85.5 105.125 84.125 C 105.648438 82.550781 105.648438 82.550781 107.183594 82.328125 Z M 107.183594 82.328125 "/>
<path style=" stroke:none;fill-rule:nonzero;fill:rgb(42.352942%,31.37255%,28.627452%);fill-opacity:1;" d="M 78.011719 158.941406 C 78.640625 158.9375 78.640625 158.9375 79.28125 158.9375 C 80.695312 158.9375 82.109375 158.941406 83.523438 158.941406 C 84.53125 158.945312 85.542969 158.941406 86.550781 158.941406 C 89.300781 158.941406 92.050781 158.945312 94.800781 158.949219 C 97.667969 158.953125 100.539062 158.953125 103.410156 158.953125 C 108.847656 158.953125 114.285156 158.960938 119.722656 158.964844 C 125.914062 158.96875 132.101562 158.972656 138.292969 158.976562 C 151.027344 158.980469 163.765625 158.988281 176.5 159 C 176.5 159.164062 176.5 159.328125 176.5 159.5 C 143.003906 159.5 109.511719 159.5 75 159.5 C 74.835938 159.996094 74.671875 160.488281 74.5 161 C 74.003906 161 73.511719 161 73 161 C 73.164062 162.15625 73.328125 163.308594 73.5 164.5 C 73.828125 164.5 74.160156 164.5 74.5 164.5 C 74.5 165.488281 74.5 166.480469 74.5 167.5 C 73.144531 167.070312 72.222656 166.773438 71.3125 165.65625 C 70.855469 163.964844 71.101562 162.691406 71.5 161 C 73.269531 158.695312 75.308594 158.929688 78.011719 158.941406 Z M 78.011719 158.941406 "/>
<path style=" stroke:none;fill-rule:nonzero;fill:rgb(23.921569%,7.058824%,4.705882%);fill-opacity:1;" d="M 126.5 114 C 127.6875 114.5625 127.6875 114.5625 128.5 115.5 C 128.730469 117.074219 128.761719 118.039062 127.96875 119.4375 C 126.441406 120.324219 125.226562 120.183594 123.5 120 C 122.28125 119.4375 122.28125 119.4375 121.5 118.5 C 121.25 117 121.25 117 121.5 115.5 C 122.957031 113.820312 124.359375 113.730469 126.5 114 Z M 126.5 114 "/>
<path style=" stroke:none;fill-rule:nonzero;fill:rgb(42.352942%,31.764707%,30.19608%);fill-opacity:1;" d="M 71.5 161 C 73.5 163.375 73.5 163.375 73.5 164.5 C 73.828125 164.5 74.160156 164.5 74.5 164.5 C 74.5 165.488281 74.5 166.480469 74.5 167.5 C 73.144531 167.070312 72.222656 166.773438 71.3125 165.65625 C 70.867188 164.015625 71.183594 162.648438 71.5 161 Z M 71.5 161 "/>
<path style=" stroke:none;fill-rule:nonzero;fill:rgb(53.725493%,43.529412%,43.137255%);fill-opacity:1;" d="M 126.5 114 C 126.5 114.328125 126.5 114.660156 126.5 115 C 126.21875 115.054688 125.933594 115.109375 125.640625 115.164062 C 125.09375 115.285156 125.09375 115.285156 124.53125 115.40625 C 124.164062 115.480469 123.800781 115.558594 123.421875 115.632812 C 122.964844 115.816406 122.964844 115.816406 122.5 116 C 122.335938 116.496094 122.171875 116.988281 122 117.5 C 122.660156 117.828125 123.320312 118.160156 124 118.5 C 124 118.664062 124 118.828125 124 119 C 125.484375 119.246094 125.484375 119.246094 127 119.5 C 127 119.664062 127 119.828125 127 120 C 123.890625 120.179688 123.890625 120.179688 122.28125 119.4375 C 121.5 118.5 121.5 118.5 121.25 117 C 121.5 115.5 121.5 115.5 122.3125 114.5625 C 123.78125 113.867188 124.890625 113.890625 126.5 114 Z M 126.5 114 "/>
<path style=" stroke:none;fill-rule:nonzero;fill:rgb(99.607843%,97.647059%,95.686275%);fill-opacity:1;" d="M 101.5 132 C 102.160156 132 102.820312 132 103.5 132 C 102.785156 133.679688 101.917969 134.636719 100.53125 135.8125 C 100.1875 136.109375 99.839844 136.402344 99.484375 136.707031 C 98.5 137.5 98.5 137.5 97 138.5 C 97.503906 136.742188 98.121094 135.800781 99.53125 134.6875 C 101.105469 133.632812 101.105469 133.632812 101.5 132 Z M 101.5 132 "/>
<path style=" stroke:none;fill-rule:nonzero;fill:rgb(31.37255%,19.215687%,17.647059%);fill-opacity:1;" d="M 126.5 114.5 C 127.160156 114.828125 127.820312 115.160156 128.5 115.5 C 128.5 116.488281 128.5 117.480469 128.5 118.5 C 128.003906 118.746094 128.003906 118.746094 127.5 119 C 127.335938 118.503906 127.171875 118.011719 127 117.5 C 126.671875 117.335938 126.339844 117.171875 126 117 C 126.164062 116.175781 126.328125 115.351562 126.5 114.5 Z M 126.5 114.5 "/>
<path style=" stroke:none;fill-rule:nonzero;fill:rgb(50.980395%,42.352942%,40.784314%);fill-opacity:1;" d="M 177.5 160 C 179 161.5 179 161.5 179.1875 163.25 C 179 165 179 165 177.5 166.5 C 177.5 164.355469 177.5 162.210938 177.5 160 Z M 177.5 160 "/>
<path style=" stroke:none;fill-rule:nonzero;fill:rgb(33.725491%,19.607843%,17.254902%);fill-opacity:1;" d="M 73 163.5 C 73.164062 163.828125 73.328125 164.160156 73.5 164.5 C 73.828125 164.5 74.160156 164.5 74.5 164.5 C 74.5 165.488281 74.5 166.480469 74.5 167.5 C 73.261719 167.003906 73.261719 167.003906 72 166.5 C 72.328125 165.511719 72.660156 164.519531 73 163.5 Z M 73 163.5 "/>
<path style=" stroke:none;fill-rule:nonzero;fill:rgb(33.333334%,20.784314%,18.82353%);fill-opacity:1;" d="M 75 159.5 C 74.835938 159.996094 74.671875 160.488281 74.5 161 C 74.003906 161 73.511719 161 73 161 C 72.835938 161.496094 72.671875 161.988281 72.5 162.5 C 72.335938 161.675781 72.171875 160.851562 72 160 C 73 159.5 73 159.5 75 159.5 Z M 75 159.5 "/>
<path style=" stroke:none;fill-rule:nonzero;fill:rgb(46.666667%,35.686275%,34.117648%);fill-opacity:1;" d="M 122 117.5 C 122.988281 117.996094 122.988281 117.996094 124 118.5 C 124 118.664062 124 118.828125 124 119 C 125.484375 119.246094 125.484375 119.246094 127 119.5 C 127 119.664062 127 119.828125 127 120 C 123.6875 120.125 123.6875 120.125 122 119 C 122 118.503906 122 118.011719 122 117.5 Z M 122 117.5 "/>
</g>
</svg>
