<svg version="1.1" viewBox="8.5 66 210.5 106" xmlns:xlink="http://www.w3.org/1999/xlink" xmlns="http://www.w3.org/2000/svg" style="max-height: 500px" width="210.5" height="106">
<g id="surface1">
<path d="M 61 70.5 C 61.660156 70.664062 62.320312 70.828125 63 71 C 63.042969 72.925781 62.921875 74.625 62.5 76.5 C 62.429688 76.984375 62.355469 77.46875 62.28125 77.96875 C 62 79.5 62 79.5 61.4375 81 C 60.925781 82.757812 60.957031 83.757812 61.5 85.5 C 62.992188 86.847656 64.609375 87.519531 66.46875 88.25 C 68.425781 89.023438 70.261719 89.796875 72 91 C 72 91.328125 72 91.660156 72 92 C 72.328125 92 72.660156 92 73 92 C 74.082031 94.679688 74.003906 96.132812 73.035156 98.832031 C 72.160156 100.742188 70.882812 102.21875 69.5 103.78125 C 66.609375 107.070312 64.605469 110.292969 64.757812 114.84375 C 65.21875 117.039062 66.445312 118.902344 68 120.5 C 68.988281 120.972656 68.988281 120.972656 70 121 C 71.605469 120.042969 72.363281 119.292969 73.15625 117.59375 C 73.722656 114.976562 73.628906 112.597656 73 110 C 73.328125 110 73.660156 110 74 110 C 74.753906 111.023438 74.753906 111.023438 75.5625 112.375 C 75.832031 112.816406 76.101562 113.257812 76.378906 113.710938 C 77 115 77 115 77 117 C 77.328125 117 77.660156 117 78 117 C 78.066406 112.855469 76.605469 109.730469 74.796875 106.109375 C 73.636719 103.765625 73.414062 102.59375 74.09375 100.039062 C 74.746094 98.371094 75.773438 97.292969 77 96 C 77.328125 96.328125 77.660156 96.660156 78 97 C 77.835938 97.421875 77.671875 97.84375 77.5 98.28125 C 76.804688 100.675781 76.578125 102.570312 77.625 104.875 C 78.492188 105.992188 79.363281 106.675781 80.5 107.5 C 80.5 107.828125 80.5 108.160156 80.5 108.5 C 80.828125 108.5 81.160156 108.5 81.5 108.5 C 82.949219 110.414062 83.269531 112.136719 83.5 114.5 C 83.828125 114.5 84.160156 114.5 84.5 114.5 C 84.394531 115.292969 84.285156 116.085938 84.164062 116.875 C 84.046875 117.675781 83.945312 118.476562 83.851562 119.28125 C 83.339844 122.910156 82.09375 125.511719 80 128.5 C 79.742188 128.878906 79.484375 129.253906 79.21875 129.640625 C 78.980469 129.925781 78.742188 130.207031 78.5 130.5 C 78.171875 130.5 77.839844 130.5 77.5 130.5 C 77.5 130.828125 77.5 131.160156 77.5 131.5 C 70.515625 136.890625 62.667969 138.667969 54 138 C 46.808594 136.992188 40.324219 133.757812 35.78125 127.96875 C 32.945312 123.867188 32.066406 119.421875 32.5 114.5 C 33.292969 110.226562 35.183594 106.621094 38.4375 103.71875 C 38.789062 103.480469 39.140625 103.246094 39.5 103 C 39.464844 103.304688 39.429688 103.605469 39.390625 103.917969 C 38.804688 109.207031 38.667969 113.105469 41 118 C 40.9375 117.335938 40.9375 117.335938 40.875 116.65625 C 40.90625 111.566406 43.058594 107.121094 46.5 103.5 C 47.84375 102.191406 49.191406 100.894531 50.578125 99.632812 C 51.628906 98.609375 51.628906 98.609375 51.414062 97.488281 C 50.691406 95.757812 48.855469 95.320312 47.21875 94.625 C 46.6875 94.386719 46.6875 94.386719 46.140625 94.148438 C 45.265625 93.757812 44.382812 93.378906 43.5 93 C 43.5 92.671875 43.5 92.339844 43.5 92 C 43.191406 91.855469 42.882812 91.710938 42.5625 91.5625 C 41.5 91 41.5 91 40.5 90 C 40.5 89.339844 40.5 88.679688 40.5 88 C 40.171875 87.835938 39.839844 87.671875 39.5 87.5 C 39.5 86.839844 39.5 86.179688 39.5 85.5 C 40.46875 85.90625 40.46875 85.90625 41.5 86.5 C 41.664062 86.996094 41.828125 87.488281 42 88 C 44.640625 90.136719 47.269531 90.898438 50.5 91.71875 C 56.851562 93.355469 56.851562 93.355469 59 96 C 60.019531 98.195312 59.304688 99.757812 58.53125 101.9375 C 58.195312 102.792969 57.851562 103.648438 57.5 104.5 C 58.304688 103.636719 59.105469 102.773438 59.90625 101.90625 C 60.351562 101.425781 60.800781 100.941406 61.257812 100.445312 C 62.792969 98.65625 63.902344 97.300781 64.1875 94.9375 C 63.972656 93.28125 63.746094 93.03125 62.5 92 C 61.453125 91.449219 61.453125 91.449219 60.3125 91 C 55.914062 89.117188 55.914062 89.117188 54.5 87 C 55.023438 84.660156 56.125 82.960938 57.46875 81 C 59.660156 77.65625 60.429688 74.464844 61 70.5 Z M 56.5 105 C 56.335938 105.660156 56.171875 106.320312 56 107 C 56.328125 106.339844 56.660156 105.679688 57 105 C 56.835938 105 56.671875 105 56.5 105 Z M 55 107 C 53.695312 109.9375 53.910156 112.855469 54 116 C 54.164062 116 54.328125 116 54.5 116 C 54.523438 115.644531 54.550781 115.289062 54.574219 114.921875 C 54.789062 112.148438 55.121094 109.640625 56 107 C 55.671875 107 55.339844 107 55 107 Z M 55 107" style="stroke:none;fill-rule:nonzero;fill:rgb(98.823529%,74.117649%,1.568628%);fill-opacity:1;"/>
<path d="M 102 127 C 102.496094 127.246094 102.496094 127.246094 103 127.5 C 101.855469 137.253906 97.191406 144.457031 89.46875 150.5625 C 77.410156 159.703125 61.144531 163.203125 46.277344 161.25 C 38.296875 159.8125 30.792969 156.332031 26 149.59375 C 25.835938 149.234375 25.671875 148.871094 25.5 148.5 C 25.664062 148.171875 25.828125 147.839844 26 147.5 C 26.328125 147.726562 26.660156 147.953125 27 148.1875 C 37.796875 154.035156 56.007812 149.617188 67.015625 146.425781 C 77.667969 143.246094 88.828125 139.6875 97.5 132.5 C 97.808594 132.269531 98.121094 132.039062 98.4375 131.804688 C 100.234375 130.441406 101.132812 129.066406 102 127 Z M 102 127" style="stroke:none;fill-rule:nonzero;fill:rgb(99.607843%,99.215686%,99.215686%);fill-opacity:1;"/>
<path d="M 67 92 C 67.96875 92.25 67.96875 92.25 69 93 C 69.8125 95.222656 69.734375 96.371094 68.90625 98.59375 C 67.394531 101.730469 65.652344 104.582031 63.625 107.40625 C 60.273438 112.140625 59.691406 115.25 60.5 121 C 60.828125 121 61.160156 121 61.5 121 C 61.691406 121.453125 61.691406 121.453125 61.890625 121.914062 C 63.109375 124.078125 65.355469 125.152344 67.675781 125.859375 C 68.855469 126.0625 69.8125 126.15625 71 126 C 72.488281 124.96875 72.488281 124.96875 73.5 123.5 C 73.800781 123.117188 74.097656 122.738281 74.40625 122.34375 C 74.601562 122.066406 74.796875 121.785156 75 121.5 C 75.496094 122.984375 75.496094 122.984375 76 124.5 C 77.210938 124.527344 77.210938 124.527344 78.5 124 C 80.324219 121.070312 80.339844 117.882812 80.5 114.5 C 82.320312 117.230469 81.535156 120.203125 80.9375 123.28125 C 80.21875 126.222656 79.214844 127.976562 77 130 C 75.105469 131.753906 75.105469 131.753906 74 134 C 67.128906 138.300781 58.355469 139.011719 50.5625 137.40625 C 45.007812 135.925781 39.242188 132.925781 36 128 C 34.859375 125.753906 33.972656 123.761719 34.0625 121.21875 C 34.5 120 34.5 120 35.5 119.5 C 36.765625 120.621094 37.332031 121.617188 37.9375 123.1875 C 38.816406 125.246094 39.78125 126.523438 41.5 128 C 41.742188 128.222656 41.988281 128.441406 42.238281 128.671875 C 43.75 130.007812 45.121094 130.804688 47 131.5 C 46.855469 131.160156 46.710938 130.820312 46.5625 130.46875 C 44.289062 124.527344 44.054688 117.957031 46.5 112 C 47.21875 110.582031 47.953125 109.207031 49 108 C 49.328125 108 49.660156 108 50 108 C 49.882812 108.753906 49.882812 108.753906 49.757812 109.519531 C 49.125 114.351562 48.699219 119.289062 51.5 123.5 C 53.632812 126.121094 56.78125 128.425781 60 129.5 C 59.832031 129.214844 59.664062 128.929688 59.488281 128.640625 C 56.808594 124.003906 55.722656 119.8125 56.808594 114.488281 C 57.933594 110.613281 59.863281 107.992188 62.5 105 C 65.726562 101.109375 67.855469 98.21875 67.5 93 C 67.253906 92.503906 67.253906 92.503906 67 92 Z M 67 92" style="stroke:none;fill-rule:nonzero;fill:rgb(98.431373%,55.686277%,1.176471%);fill-opacity:1;"/>
<path d="M 90 117 C 93.472656 117.394531 96.828125 118.191406 99.5 120.5 C 100.582031 122.121094 100.734375 122.941406 100.414062 124.851562 C 98.484375 130.214844 92.269531 133.460938 87.5 136 C 86.246094 136.582031 85.011719 137.097656 83.703125 137.542969 C 82.648438 137.945312 81.71875 138.402344 80.722656 138.929688 C 78.140625 140.234375 75.441406 141.097656 72.6875 141.96875 C 72.140625 142.140625 71.59375 142.316406 71.03125 142.492188 C 65.75 144.132812 60.433594 145.464844 55 146.5 C 54.488281 146.597656 54.488281 146.597656 53.964844 146.699219 C 49.359375 147.539062 44.734375 147.609375 40.0625 147.65625 C 39.207031 147.667969 39.207031 147.667969 38.332031 147.683594 C 33.558594 147.679688 29.308594 147.027344 25.5 144 C 24.722656 142.445312 24.855469 141.21875 25 139.5 C 26.449219 136.542969 29.019531 134.585938 31.5 132.5 C 31.828125 132.664062 32.160156 132.828125 32.5 133 C 32.277344 133.253906 32.054688 133.507812 31.824219 133.769531 C 30.007812 135.9375 30.007812 135.9375 29.375 138.625 C 30.214844 140.472656 31.167969 141.257812 33 142 C 41.589844 144.707031 53.621094 142.90625 62 140 C 62.902344 139.773438 63.808594 139.554688 64.71875 139.34375 C 74.421875 136.9375 86.59375 133.097656 93.5 125.5 C 94.410156 123.925781 94.820312 122.832031 94.5 121 C 92.867188 119.320312 91.234375 118.625 89 118 C 89.328125 117.671875 89.660156 117.339844 90 117 Z M 90 117" style="stroke:none;fill-rule:nonzero;fill:rgb(98.823529%,98.823529%,98.039216%);fill-opacity:1;"/>
<path d="M 152.5 99 C 153.71875 99.78125 153.71875 99.78125 154.5 101 C 154.933594 103.25 154.589844 104.636719 153.34375 106.5 C 148.339844 112.496094 139.308594 115.195312 132.265625 118 C 131.9375 118.128906 131.613281 118.257812 131.277344 118.390625 C 129.667969 119.027344 128.054688 119.664062 126.441406 120.289062 C 118.445312 123.421875 110.730469 126.515625 106.234375 134.242188 C 105.558594 135.398438 104.824219 136.445312 104 137.5 C 103.203125 135.03125 103.65625 132.886719 104.5 130.5 C 106.835938 125.984375 110.214844 123.125 114.8125 121.09375 C 115.355469 120.84375 115.355469 120.84375 115.910156 120.589844 C 117.964844 119.65625 120.039062 118.769531 122.125 117.902344 C 131.179688 114.132812 139.328125 110.113281 145.265625 101.972656 C 147.316406 99.261719 149.050781 98.699219 152.5 99 Z M 152.5 99" style="stroke:none;fill-rule:nonzero;fill:rgb(99.215686%,99.215686%,98.823529%);fill-opacity:1;"/>
<path d="M 136.75 131.4375 C 138 131.5 138 131.5 138.5 132 C 138.957031 134.851562 139.058594 137.613281 139 140.5 C 141.785156 139.105469 144.039062 137.273438 146.324219 135.175781 C 147.550781 134.097656 148.28125 133.523438 149.933594 133.351562 C 150.285156 133.402344 150.636719 133.449219 151 133.5 C 151.46875 134.53125 151.46875 134.53125 151.5 136 C 149.464844 138.847656 146.277344 140.929688 143.5 143 C 143.820312 143.320312 144.140625 143.640625 144.46875 143.96875 C 144.691406 144.195312 144.914062 144.421875 145.140625 144.65625 C 145.808594 145.3125 146.492188 145.949219 147.1875 146.578125 C 147.597656 146.964844 148.011719 147.351562 148.4375 147.75 C 148.839844 148.117188 149.238281 148.480469 149.652344 148.859375 C 150.5 150 150.5 150 150.378906 151.390625 C 150.253906 151.757812 150.128906 152.121094 150 152.5 C 149.148438 152.878906 149.148438 152.878906 148 153 C 146.835938 152.152344 146.835938 152.152344 145.59375 150.9375 C 143.648438 149.089844 141.722656 147.496094 139.5 146 C 139.664062 146.328125 139.828125 146.660156 140 147 C 140.035156 147.769531 140.042969 148.542969 140.03125 149.3125 C 140.027344 149.722656 140.023438 150.128906 140.015625 150.550781 C 140.011719 150.863281 140.007812 151.175781 140 151.5 C 139.339844 151.828125 138.679688 152.160156 138 152.5 C 136.5 151.5 136.5 151.5 136 150 C 135.761719 148.101562 135.625 146.191406 135.46875 144.28125 C 135.402344 143.507812 135.402344 143.507812 135.332031 142.71875 C 135.035156 139.160156 134.796875 135.574219 135 132 C 135.5 131.5 135.5 131.5 136.75 131.4375 Z M 136.75 131.4375" style="stroke:none;fill-rule:nonzero;fill:rgb(99.215686%,98.823529%,98.431373%);fill-opacity:1;"/>
<path d="M 184 135.5 C 184.988281 135.5 185.980469 135.5 187 135.5 C 187.542969 138.53125 187.726562 141.523438 187.875 144.59375 C 187.925781 145.414062 187.925781 145.414062 187.976562 146.25 C 188.003906 146.773438 188.027344 147.296875 188.054688 147.835938 C 188.082031 148.308594 188.105469 148.785156 188.132812 149.277344 C 188 150.5 188 150.5 187.328125 151.414062 C 186.5 152 186.5 152 185.1875 152.03125 C 182.8125 151.285156 181.011719 149.9375 179 148.5 C 178.40625 148.101562 177.8125 147.707031 177.21875 147.3125 C 176.816406 147.042969 176.414062 146.777344 176 146.5 C 176.011719 146.847656 176.023438 147.199219 176.035156 147.558594 C 176.046875 148.242188 176.046875 148.242188 176.0625 148.9375 C 176.074219 149.390625 176.085938 149.84375 176.097656 150.308594 C 176 151.5 176 151.5 175 152.5 C 174 152.4375 174 152.4375 173 152 C 170.792969 148.5 170.441406 142.542969 171 138.5 C 171.328125 138.171875 171.660156 137.839844 172 137.5 C 173.472656 137.59375 174.257812 137.777344 175.351562 138.78125 C 175.605469 139.113281 175.863281 139.441406 176.125 139.78125 C 178.167969 142.269531 180.585938 145.042969 183.5 146.5 C 183.496094 146.054688 183.496094 146.054688 183.492188 145.597656 C 183.480469 144.253906 183.476562 142.90625 183.46875 141.5625 C 183.464844 141.09375 183.460938 140.625 183.457031 140.140625 C 183.453125 139.46875 183.453125 139.46875 183.453125 138.785156 C 183.445312 138.164062 183.445312 138.164062 183.441406 137.53125 C 183.5 136.5 183.5 136.5 184 135.5 Z M 184 135.5" style="stroke:none;fill-rule:nonzero;fill:rgb(99.215686%,99.215686%,98.823529%);fill-opacity:1;"/>
<path d="M 163.53125 134.824219 C 166.125 135.972656 167.652344 137.507812 169 140 C 169.769531 142.308594 169.769531 144.222656 168.96875 146.53125 C 167.582031 148.632812 165.769531 150.367188 163.5 151.5 C 161.078125 151.703125 158.789062 151.835938 156.53125 150.875 C 153.132812 147.988281 153.132812 147.988281 152.882812 145.148438 C 152.804688 142 152.757812 139.917969 155 137.5 C 157.667969 135.007812 159.773438 133.644531 163.53125 134.824219 Z M 157.5 140 C 156.546875 141.253906 156.480469 142.136719 156.25 143.71875 C 156.351562 145.597656 156.351562 145.597656 157.78125 147 C 159.425781 148.136719 159.425781 148.136719 161.28125 148.0625 C 163.316406 147.394531 164.195312 146.6875 165.5 145 C 166.121094 143.808594 166.121094 143.808594 166 142.5 C 164.867188 140.320312 163.726562 139.054688 161.5 138 C 159.816406 138 158.808594 139.019531 157.5 140 Z M 157.5 140" style="stroke:none;fill-rule:nonzero;fill:rgb(99.215686%,98.823529%,98.431373%);fill-opacity:1;"/>
<path d="M 77 96 C 77.328125 96.328125 77.660156 96.660156 78 97 C 77.835938 97.421875 77.671875 97.84375 77.5 98.28125 C 76.804688 100.675781 76.578125 102.570312 77.625 104.875 C 78.492188 105.992188 79.363281 106.675781 80.5 107.5 C 80.5 107.828125 80.5 108.160156 80.5 108.5 C 80.828125 108.5 81.160156 108.5 81.5 108.5 C 82.949219 110.414062 83.269531 112.136719 83.5 114.5 C 83.828125 114.5 84.160156 114.5 84.5 114.5 C 84.394531 115.292969 84.285156 116.085938 84.164062 116.875 C 84.046875 117.675781 83.945312 118.476562 83.851562 119.28125 C 83.339844 122.910156 82.09375 125.511719 80 128.5 C 79.613281 129.066406 79.613281 129.066406 79.21875 129.640625 C 78.980469 129.925781 78.742188 130.207031 78.5 130.5 C 78.171875 130.5 77.839844 130.5 77.5 130.5 C 77.5 130.828125 77.5 131.160156 77.5 131.5 C 76.34375 132.160156 75.191406 132.820312 74 133.5 C 74.621094 131.636719 75.605469 130.863281 77 129.5 C 77.417969 128.925781 77.417969 128.925781 77.84375 128.34375 C 78.058594 128.066406 78.277344 127.785156 78.5 127.5 C 78.828125 127.5 79.160156 127.5 79.5 127.5 C 81.117188 120.546875 81.117188 120.546875 80.5 113.5 C 80.171875 113.5 79.839844 113.5 79.5 113.5 C 79.457031 115.023438 79.511719 116.035156 80 117.5 C 79.339844 117.5 78.679688 117.5 78 117.5 C 77.835938 118.160156 77.671875 118.820312 77.5 119.5 C 77.171875 119.335938 76.839844 119.171875 76.5 119 C 76.5 118.503906 76.5 118.011719 76.5 117.5 C 74.972656 118.066406 74.195312 118.808594 73.21875 120.0625 C 72.816406 120.535156 72.414062 121.011719 72 121.5 C 71.503906 121.5 71.011719 121.5 70.5 121.5 C 70.5 121.828125 70.5 122.160156 70.5 122.5 C 68.519531 122.253906 68.519531 122.253906 66.5 122 C 65.695312 120.175781 65.277344 118.476562 65 116.5 C 65.195312 116.777344 65.390625 117.058594 65.59375 117.34375 C 66.632812 118.671875 67.792969 119.824219 69 121 C 70.632812 120.515625 71.363281 120.1875 72.375 118.78125 C 73.804688 115.847656 73.761719 113.144531 73 110 C 73.328125 110 73.660156 110 74 110 C 74.753906 111.023438 74.753906 111.023438 75.5625 112.375 C 75.964844 113.035156 75.964844 113.035156 76.378906 113.710938 C 77 115 77 115 77 117 C 77.328125 117 77.660156 117 78 117 C 78.066406 112.855469 76.605469 109.730469 74.796875 106.109375 C 73.636719 103.765625 73.414062 102.59375 74.09375 100.039062 C 74.746094 98.371094 75.773438 97.292969 77 96 Z M 77 96" style="stroke:none;fill-rule:nonzero;fill:rgb(97.647059%,74.901962%,3.529412%);fill-opacity:1;"/>
<path d="M 61 70.5 C 61.660156 70.664062 62.320312 70.828125 63 71 C 63.042969 72.925781 62.921875 74.625 62.5 76.5 C 62.429688 76.984375 62.355469 77.46875 62.28125 77.96875 C 62 79.5 62 79.5 61.4375 81 C 60.925781 82.757812 60.957031 83.757812 61.5 85.5 C 62.992188 86.847656 64.609375 87.519531 66.46875 88.25 C 68.433594 89.027344 70.210938 89.867188 72 91 C 71.753906 91.496094 71.753906 91.496094 71.5 92 C 70.34375 91.671875 69.191406 91.339844 68 91 C 67.835938 91.328125 67.671875 91.660156 67.5 92 C 67.171875 91.835938 66.839844 91.671875 66.5 91.5 C 66.425781 92.089844 66.425781 92.089844 66.351562 92.6875 C 65.890625 95.914062 65.339844 98.300781 63.5 101 C 63.003906 101 62.511719 101 62 101 C 61.835938 101.328125 61.671875 101.660156 61.5 102 C 61.171875 101.835938 60.839844 101.671875 60.5 101.5 C 60.878906 101.011719 60.878906 101.011719 61.265625 100.511719 C 61.589844 100.074219 61.914062 99.636719 62.25 99.1875 C 62.574219 98.757812 62.898438 98.328125 63.234375 97.886719 C 64.136719 96.253906 64.261719 95.335938 64 93.5 C 63.039062 92.128906 61.835938 91.625 60.3125 91 C 55.914062 89.117188 55.914062 89.117188 54.5 87 C 55.023438 84.660156 56.125 82.960938 57.46875 81 C 59.660156 77.65625 60.429688 74.464844 61 70.5 Z M 61 70.5" style="stroke:none;fill-rule:nonzero;fill:rgb(98.431373%,75.294119%,4.313726%);fill-opacity:1;"/>
<path d="M 123 132.5 C 124.921875 133.207031 125.761719 134.226562 126.65625 136 C 127.84375 138.996094 128.25 142.136719 127.023438 145.1875 C 125.828125 147.246094 124.691406 148.46875 122.5 149.5 C 120.835938 149.648438 120.835938 149.648438 119.09375 149.59375 C 118.222656 149.574219 118.222656 149.574219 117.335938 149.554688 C 116.894531 149.535156 116.453125 149.519531 116 149.5 C 115.6875 148.3125 115.6875 148.3125 115.5 147 C 116.839844 145.660156 117.695312 145.808594 119.5625 145.6875 C 120.109375 145.648438 120.65625 145.613281 121.222656 145.574219 C 121.644531 145.550781 122.066406 145.523438 122.5 145.5 C 123.390625 142.929688 123.644531 141.21875 123 138.5 C 122.730469 137.984375 122.464844 137.46875 122.1875 136.9375 C 121.5 135.5 121.5 135.5 121.59375 134.09375 C 122 133 122 133 123 132.5 Z M 123 132.5" style="stroke:none;fill-rule:nonzero;fill:rgb(99.215686%,99.215686%,98.431373%);fill-opacity:1;"/>
<path d="M 129 134 C 129.988281 134 130.980469 134 132 134 C 133.550781 138.757812 133.625 143.75 133.875 148.71875 C 133.910156 149.257812 133.941406 149.792969 133.976562 150.347656 C 134.015625 151.117188 134.015625 151.117188 134.054688 151.90625 C 134.082031 152.367188 134.105469 152.832031 134.132812 153.308594 C 134 154.5 134 154.5 133.371094 155.445312 C 132.5 156 132.5 156 131.40625 155.84375 C 131.105469 155.730469 130.808594 155.617188 130.5 155.5 C 129.546875 150.792969 129.292969 146.15625 129.1875 141.375 C 129.167969 140.65625 129.148438 139.9375 129.128906 139.21875 C 129.082031 137.476562 129.039062 135.738281 129 134 Z M 129 134" style="stroke:none;fill-rule:nonzero;fill:rgb(99.215686%,99.215686%,98.823529%);fill-opacity:1;"/>
<path d="M 190.78125 133.96875 C 191.382812 133.984375 191.382812 133.984375 192 134 C 194.011719 138.292969 193.644531 143.363281 193.78125 148 C 193.804688 148.679688 193.824219 149.359375 193.847656 150.039062 C 193.898438 151.695312 193.949219 153.347656 194 155 C 192.8125 155.53125 192.8125 155.53125 191.5 156 C 190.5 155.5 190.5 155.5 190.203125 154.683594 C 189.9375 153.136719 189.832031 151.605469 189.734375 150.039062 C 189.710938 149.703125 189.6875 149.371094 189.667969 149.027344 C 189.621094 148.324219 189.578125 147.621094 189.535156 146.917969 C 189.46875 145.851562 189.402344 144.785156 189.332031 143.71875 C 188.921875 137.265625 188.921875 137.265625 189 134.5 C 189.5 134 189.5 134 190.78125 133.96875 Z M 190.78125 133.96875" style="stroke:none;fill-rule:nonzero;fill:rgb(99.215686%,99.215686%,98.823529%);fill-opacity:1;"/>
<path d="M 39 103 C 39.675781 104.351562 39.335938 105.367188 39.132812 106.820312 C 38.785156 109.917969 38.695312 112.628906 40 115.5 C 39.835938 115.996094 39.671875 116.488281 39.5 117 C 39.5 116.671875 39.5 116.339844 39.5 116 C 38.261719 115.503906 38.261719 115.503906 37 115 C 37.328125 114.339844 37.660156 113.679688 38 113 C 37.671875 113 37.339844 113 37 113 C 36.324219 114.351562 36.332031 115.558594 36.21875 117.0625 C 36.175781 117.609375 36.136719 118.15625 36.09375 118.722656 C 36.0625 119.144531 36.03125 119.566406 36 120 C 35.671875 120 35.339844 120 35 120 C 34.324219 122.582031 34.769531 123.691406 36 126 C 35.835938 126.496094 35.671875 126.988281 35.5 127.5 C 33.964844 124.6875 32.675781 122.257812 32.5 119 C 32.460938 118.484375 32.460938 118.484375 32.421875 117.960938 C 32.203125 112.933594 33.941406 108.917969 37 105 C 38.1875 103.71875 38.1875 103.71875 39 103 Z M 39 103" style="stroke:none;fill-rule:nonzero;fill:rgb(97.647059%,62.352943%,1.568628%);fill-opacity:1;"/>
<path d="M 68 91 C 69.734375 91.230469 71.335938 91.445312 73 92 C 74.207031 94.632812 73.984375 96.15625 73.03125 98.832031 C 72.160156 100.742188 70.882812 102.21875 69.5 103.78125 C 66.949219 106.6875 64.6875 109.648438 64.90625 113.75 C 64.9375 114.328125 64.96875 114.90625 65 115.5 C 64.671875 115.335938 64.339844 115.171875 64 115 C 63.988281 114.113281 63.976562 113.230469 63.96875 112.34375 C 63.964844 111.851562 63.957031 111.359375 63.953125 110.851562 C 64 109.5 64 109.5 64.5 108 C 64.828125 108 65.160156 108 65.5 108 C 65.5 107.175781 65.5 106.351562 65.5 105.5 C 65.996094 105.335938 66.488281 105.171875 67 105 C 66.957031 104.515625 66.917969 104.03125 66.875 103.53125 C 66.859375 101.851562 67.277344 100.773438 68.03125 99.28125 C 69.441406 96.371094 68.890625 94.054688 68 91 Z M 68 91" style="stroke:none;fill-rule:nonzero;fill:rgb(98.431373%,73.725492%,1.568628%);fill-opacity:1;"/>
<path d="M 39.5 85.5 C 40.46875 85.90625 40.46875 85.90625 41.5 86.5 C 41.664062 86.996094 41.828125 87.488281 42 88 C 44.945312 90.378906 48.117188 91.195312 51.738281 92.0625 C 54.207031 92.675781 55.988281 93.429688 58 95 C 58 95.164062 58 95.328125 58 95.5 C 57.175781 95.5 56.351562 95.5 55.5 95.5 C 55.5 95.171875 55.5 94.839844 55.5 94.5 C 55.003906 94.5 54.511719 94.5 54 94.5 C 54 94.171875 54 93.839844 54 93.5 C 51.523438 93.746094 51.523438 93.746094 49 94 C 50.320312 94.496094 51.640625 94.988281 53 95.5 C 53.1875 97.09375 53.1875 97.09375 53 99 C 51.5625 100.25 51.5625 100.25 50.71875 100.835938 C 49.808594 101.554688 49.808594 101.554688 49.53125 103.34375 C 49.269531 104.164062 49.269531 104.164062 49 105 C 47.1875 105.71875 47.1875 105.71875 45.5 106 C 45.5 106.496094 45.5 106.988281 45.5 107.5 C 45.003906 107.5 44.511719 107.5 44 107.5 C 44.828125 104.527344 47.078125 102.871094 49.28125 100.863281 C 49.574219 100.589844 49.863281 100.3125 50.164062 100.03125 C 50.429688 99.785156 50.699219 99.539062 50.976562 99.285156 C 51.605469 98.511719 51.605469 98.511719 51.4375 97.464844 C 50.667969 95.769531 48.847656 95.316406 47.21875 94.625 C 46.863281 94.46875 46.507812 94.308594 46.140625 94.148438 C 45.265625 93.757812 44.382812 93.378906 43.5 93 C 43.5 92.671875 43.5 92.339844 43.5 92 C 43.035156 91.785156 43.035156 91.785156 42.5625 91.5625 C 41.5 91 41.5 91 40.5 90 C 40.5 89.339844 40.5 88.679688 40.5 88 C 40.171875 87.835938 39.839844 87.671875 39.5 87.5 C 39.5 86.839844 39.5 86.179688 39.5 85.5 Z M 39.5 85.5" style="stroke:none;fill-rule:nonzero;fill:rgb(96.078432%,79.215688%,18.82353%);fill-opacity:1;"/>
<path d="M 60 102 C 60 103.554688 59.730469 104.175781 59 105.5 C 58.503906 105.5 58.011719 105.5 57.5 105.5 C 57.5 105.996094 57.5 106.488281 57.5 107 C 58.324219 107 59.148438 107 60 107 C 59.835938 107.824219 59.671875 108.648438 59.5 109.5 C 58.839844 109.664062 58.179688 109.828125 57.5 110 C 57.335938 110.824219 57.171875 111.648438 57 112.5 C 56.503906 112.335938 56.011719 112.171875 55.5 112 C 55.511719 112.308594 55.523438 112.613281 55.535156 112.929688 C 55.542969 113.335938 55.554688 113.738281 55.5625 114.15625 C 55.574219 114.554688 55.585938 114.957031 55.597656 115.367188 C 55.5 116.5 55.5 116.5 54.5 118 C 54.5 117.671875 54.5 117.339844 54.5 117 C 54.171875 117 53.839844 117 53.5 117 C 53.5 114.691406 53.5 112.378906 53.5 110 C 53.828125 110.164062 54.160156 110.328125 54.5 110.5 C 54.78125 109.894531 54.78125 109.894531 55.070312 109.273438 C 57.609375 103.96875 57.609375 103.96875 60 102 Z M 60 102" style="stroke:none;fill-rule:nonzero;fill:rgb(98.039216%,75.686276%,5.490196%);fill-opacity:1;"/>
<path d="M 77 96 C 77.328125 96.328125 77.660156 96.660156 78 97 C 77.835938 97.421875 77.671875 97.84375 77.5 98.28125 C 76.804688 100.675781 76.578125 102.570312 77.625 104.875 C 78.492188 105.992188 79.363281 106.675781 80.5 107.5 C 80.5 107.828125 80.5 108.160156 80.5 108.5 C 80.828125 108.5 81.160156 108.5 81.5 108.5 C 81.335938 108.828125 81.171875 109.160156 81 109.5 C 80.546875 109.117188 80.09375 108.738281 79.625 108.34375 C 78.441406 107.359375 77.242188 106.410156 76 105.5 C 75.835938 105.828125 75.671875 106.160156 75.5 106.5 C 75.828125 106.5 76.160156 106.5 76.5 106.5 C 76.5 107.160156 76.5 107.820312 76.5 108.5 C 76.828125 108.5 77.160156 108.5 77.5 108.5 C 77.664062 109.65625 77.828125 110.808594 78 112 C 76.273438 111.136719 75.851562 109.171875 75.125 107.46875 C 74.953125 107.097656 74.785156 106.730469 74.609375 106.347656 C 73.398438 103.503906 73.414062 101.90625 74.5 99 C 75.230469 97.8125 76.03125 97.019531 77 96 Z M 77 96" style="stroke:none;fill-rule:nonzero;fill:rgb(95.294118%,76.862746%,14.509805%);fill-opacity:1;"/>
<path d="M 62 86.5 C 65.484375 87.777344 68.847656 89.019531 72 91 C 71.835938 91.328125 71.671875 91.660156 71.5 92 C 70.34375 91.671875 69.191406 91.339844 68 91 C 67.835938 91.328125 67.671875 91.660156 67.5 92 C 67.171875 91.835938 66.839844 91.671875 66.5 91.5 C 66.449219 91.890625 66.402344 92.285156 66.351562 92.6875 C 65.890625 95.914062 65.339844 98.300781 63.5 101 C 63.003906 101 62.511719 101 62 101 C 61.835938 101.328125 61.671875 101.660156 61.5 102 C 61.171875 101.835938 60.839844 101.671875 60.5 101.5 C 60.753906 101.175781 61.003906 100.847656 61.265625 100.511719 C 61.589844 100.074219 61.914062 99.636719 62.25 99.1875 C 62.574219 98.757812 62.898438 98.328125 63.234375 97.886719 C 64.128906 96.265625 64.179688 95.324219 64 93.5 C 63.835938 93.003906 63.671875 92.511719 63.5 92 C 63.996094 92 64.488281 92 65 92 C 65.328125 91.175781 65.660156 90.351562 66 89.5 C 65.011719 89.171875 64.019531 88.839844 63 88.5 C 63 88.171875 63 87.839844 63 87.5 C 62.671875 87.5 62.339844 87.5 62 87.5 C 62 87.171875 62 86.839844 62 86.5 Z M 62 86.5" style="stroke:none;fill-rule:nonzero;fill:rgb(96.862745%,81.176472%,21.176471%);fill-opacity:1;"/>
<path d="M 39 103 C 39.675781 104.351562 39.335938 105.367188 39.132812 106.820312 C 38.785156 109.917969 38.695312 112.628906 40 115.5 C 39.835938 115.996094 39.671875 116.488281 39.5 117 C 39.5 116.671875 39.5 116.339844 39.5 116 C 38.261719 115.503906 38.261719 115.503906 37 115 C 37.328125 114.339844 37.660156 113.679688 38 113 C 37.671875 113 37.339844 113 37 113 C 36.835938 113.328125 36.671875 113.660156 36.5 114 C 36.390625 111.28125 36.449219 109.066406 37.5 106.5 C 37.171875 106.5 36.839844 106.5 36.5 106.5 C 36.335938 107.160156 36.171875 107.820312 36 108.5 C 35.671875 108.5 35.339844 108.5 35 108.5 C 35.738281 105.996094 37.136719 104.742188 39 103 Z M 39 103" style="stroke:none;fill-rule:nonzero;fill:rgb(98.039216%,76.078433%,10.196079%);fill-opacity:1;"/>
<path d="M 73 110 C 73.328125 110 73.660156 110 74 110 C 74.660156 111.15625 75.320312 112.308594 76 113.5 C 75.671875 113.5 75.339844 113.5 75 113.5 C 74.988281 113.988281 74.988281 113.988281 74.976562 114.488281 C 74.804688 117.667969 74.390625 119.339844 72 121.5 C 71.503906 121.5 71.011719 121.5 70.5 121.5 C 70.5 121.828125 70.5 122.160156 70.5 122.5 C 69.179688 122.335938 67.859375 122.171875 66.5 122 C 65.695312 120.175781 65.277344 118.476562 65 116.5 C 65.195312 116.777344 65.390625 117.058594 65.59375 117.34375 C 66.632812 118.671875 67.792969 119.824219 69 121 C 70.632812 120.515625 71.363281 120.1875 72.375 118.78125 C 73.804688 115.847656 73.761719 113.144531 73 110 Z M 73 110" style="stroke:none;fill-rule:nonzero;fill:rgb(97.254902%,84.705883%,30.980393%);fill-opacity:1;"/>
<path d="M 34.5 108.5 C 35.1875 110.410156 34.839844 112.035156 34.5 114 C 34.171875 114 33.839844 114 33.5 114 C 33.628906 115.4375 33.765625 116.875 33.90625 118.3125 C 33.941406 118.714844 33.976562 119.121094 34.011719 119.539062 C 34.265625 122.03125 34.824219 123.757812 36 126 C 35.835938 126.496094 35.671875 126.988281 35.5 127.5 C 33.964844 124.6875 32.675781 122.257812 32.5 119 C 32.460938 118.484375 32.460938 118.484375 32.421875 117.960938 C 32.277344 114.636719 33.007812 111.480469 34.5 108.5 Z M 34.5 108.5" style="stroke:none;fill-rule:nonzero;fill:rgb(95.294118%,74.509805%,26.666668%);fill-opacity:1;"/>
<path d="M 78 112.5 C 78.164062 112.828125 78.328125 113.160156 78.5 113.5 C 78.828125 113.5 79.160156 113.5 79.5 113.5 C 79.488281 113.882812 79.480469 114.261719 79.46875 114.65625 C 79.433594 116.050781 79.433594 116.050781 80 117.5 C 79.339844 117.5 78.679688 117.5 78 117.5 C 77.835938 118.160156 77.671875 118.820312 77.5 119.5 C 77.171875 119.335938 76.839844 119.171875 76.5 119 C 76.5 118.503906 76.5 118.011719 76.5 117.5 C 75.839844 117.664062 75.179688 117.828125 74.5 118 C 74.664062 116.515625 74.828125 115.03125 75 113.5 C 75.496094 113.664062 75.988281 113.828125 76.5 114 C 76.664062 114.988281 76.828125 115.980469 77 117 C 77.328125 117 77.660156 117 78 117 C 78 115.515625 78 114.03125 78 112.5 Z M 78 112.5" style="stroke:none;fill-rule:nonzero;fill:rgb(96.862745%,76.47059%,12.54902%);fill-opacity:1;"/>
<path d="M 69 101.5 C 69.496094 101.664062 69.988281 101.828125 70.5 102 C 70.230469 102.402344 69.964844 102.804688 69.6875 103.21875 C 69.507812 103.492188 69.328125 103.769531 69.140625 104.054688 C 68.6875 104.722656 68.210938 105.378906 67.71875 106.023438 C 65.882812 108.515625 65.15625 110.363281 65.054688 113.46875 C 65 114.5 65 114.5 64.5 115.5 C 64 115 64 115 63.933594 113.800781 C 63.933594 113.308594 63.9375 112.820312 63.9375 112.3125 C 63.9375 111.824219 63.933594 111.335938 63.933594 110.832031 C 64 109.5 64 109.5 64.5 108 C 64.828125 108 65.160156 108 65.5 108 C 65.5 107.175781 65.5 106.351562 65.5 105.5 C 65.996094 105.335938 66.488281 105.171875 67 105 C 67.164062 104.503906 67.328125 104.011719 67.5 103.5 C 67.828125 103.664062 68.160156 103.828125 68.5 104 C 68.664062 103.175781 68.828125 102.351562 69 101.5 Z M 69 101.5" style="stroke:none;fill-rule:nonzero;fill:rgb(94.901961%,74.509805%,14.117648%);fill-opacity:1;"/>
<path d="M 82.5 111 C 82.664062 111 82.828125 111 83 111 C 83.164062 112.15625 83.328125 113.308594 83.5 114.5 C 83.828125 114.5 84.160156 114.5 84.5 114.5 C 84.214844 116.640625 83.886719 118.773438 83.53125 120.90625 C 83.453125 121.375 83.378906 121.839844 83.296875 122.320312 C 83 123.5 83 123.5 82 124.5 C 81.503906 121.664062 81.449219 119.761719 82.5 117 C 82.828125 116.671875 83.160156 116.339844 83.5 116 C 83.171875 116 82.839844 116 82.5 116 C 82.5 114.351562 82.5 112.699219 82.5 111 Z M 82.5 111" style="stroke:none;fill-rule:nonzero;fill:rgb(94.509804%,78.039217%,24.705882%);fill-opacity:1;"/>
<path d="M 61 70.5 C 61.660156 70.664062 62.320312 70.828125 63 71 C 63.054688 73.300781 63.042969 75.410156 62 77.5 C 61.671875 77.5 61.339844 77.5 61 77.5 C 60.671875 78.160156 60.339844 78.820312 60 79.5 C 59.671875 79.5 59.339844 79.5 59 79.5 C 59.152344 78.964844 59.152344 78.964844 59.3125 78.421875 C 60.054688 75.78125 60.695312 73.226562 61 70.5 Z M 61 70.5" style="stroke:none;fill-rule:nonzero;fill:rgb(95.294118%,86.666667%,39.215687%);fill-opacity:1;"/>
<path d="M 80.5 114.5 C 82.066406 116.847656 81.671875 118.960938 81.234375 121.636719 C 80.207031 126.621094 80.207031 126.621094 78 128.5 C 77.835938 128.171875 77.671875 127.839844 77.5 127.5 C 77.996094 126.757812 77.996094 126.757812 78.5 126 C 78.828125 126 79.160156 126 79.5 126 C 79.5 125.503906 79.5 125.011719 79.5 124.5 C 79.171875 124.335938 78.839844 124.171875 78.5 124 C 78.738281 123.546875 78.972656 123.09375 79.21875 122.625 C 80.351562 120.039062 80.367188 117.285156 80.5 114.5 Z M 80.5 114.5" style="stroke:none;fill-rule:nonzero;fill:rgb(96.470588%,60.784316%,0.392157%);fill-opacity:1;"/>
<path d="M 61.5 87.5 C 61.996094 87.5 62.488281 87.5 63 87.5 C 63 87.828125 63 88.160156 63 88.5 C 63.824219 88.5 64.648438 88.5 65.5 88.5 C 66.015625 89.894531 66.023438 90.433594 65.53125 91.875 C 65.355469 92.246094 65.179688 92.617188 65 93 C 64.835938 92.671875 64.671875 92.339844 64.5 92 C 64.003906 92 63.511719 92 63 92 C 63 91.671875 63 91.339844 63 91 C 62.671875 91 62.339844 91 62 91 C 61.835938 89.84375 61.671875 88.691406 61.5 87.5 Z M 61.5 87.5" style="stroke:none;fill-rule:nonzero;fill:rgb(97.647059%,74.509805%,1.568628%);fill-opacity:1;"/>
<path d="M 39.5 85.5 C 40.46875 85.90625 40.46875 85.90625 41.5 86.5 C 41.664062 86.996094 41.828125 87.488281 42 88 C 42.929688 88.722656 42.929688 88.722656 44.03125 89.34375 C 44.398438 89.5625 44.765625 89.78125 45.140625 90.007812 C 45.425781 90.167969 45.707031 90.332031 46 90.5 C 45.011719 90.996094 45.011719 90.996094 44 91.5 C 44 91.171875 44 90.839844 44 90.5 C 43.835938 90.664062 43.671875 90.828125 43.5 91 C 43.171875 91.328125 42.839844 91.660156 42.5 92 C 41.5 91.125 41.5 91.125 40.5 90 C 40.5 89.339844 40.5 88.679688 40.5 88 C 40.171875 87.835938 39.839844 87.671875 39.5 87.5 C 39.5 86.839844 39.5 86.179688 39.5 85.5 Z M 39.5 85.5" style="stroke:none;fill-rule:nonzero;fill:rgb(95.294118%,81.176472%,30.980393%);fill-opacity:1;"/>
<path d="M 61 77 C 61.328125 77 61.660156 77 62 77 C 62.5625 78.691406 62.464844 78.867188 61.78125 80.40625 C 61.0625 82.171875 60.855469 83.574219 61 85.5 C 60.671875 85.335938 60.339844 85.171875 60 85 C 60.164062 83.515625 60.328125 82.03125 60.5 80.5 C 59.34375 81.160156 58.191406 81.820312 57 82.5 C 57.375 81.28125 57.375 81.28125 58 80 C 58.667969 79.832031 59.332031 79.667969 60 79.5 C 60.648438 78.253906 60.648438 78.253906 61 77 Z M 61 77" style="stroke:none;fill-rule:nonzero;fill:rgb(95.686275%,78.431374%,18.431373%);fill-opacity:1;"/>
<path d="M 80 125 C 80.660156 125.164062 81.320312 125.328125 82 125.5 C 81.441406 126.335938 80.878906 127.167969 80.3125 128 C 80 128.464844 79.6875 128.929688 79.363281 129.40625 C 79.078125 129.765625 78.792969 130.128906 78.5 130.5 C 78.171875 130.5 77.839844 130.5 77.5 130.5 C 77.5 130.828125 77.5 131.160156 77.5 131.5 C 76.34375 132.160156 75.191406 132.820312 74 133.5 C 74.621094 131.636719 75.605469 130.863281 77 129.5 C 77.277344 129.117188 77.558594 128.738281 77.84375 128.34375 C 78.167969 127.925781 78.167969 127.925781 78.5 127.5 C 78.828125 127.5 79.160156 127.5 79.5 127.5 C 79.664062 126.675781 79.828125 125.851562 80 125 Z M 80 125" style="stroke:none;fill-rule:nonzero;fill:rgb(94.117647%,70.588237%,12.941177%);fill-opacity:1;"/>
<path d="M 77 96 C 77.328125 96.328125 77.660156 96.660156 78 97 C 77.835938 97.445312 77.671875 97.886719 77.5 98.34375 C 77.042969 99.855469 76.910156 100.941406 77 102.5 C 76.503906 102.746094 76.503906 102.746094 76 103 C 76 102.339844 76 101.679688 76 101 C 75.671875 100.835938 75.339844 100.671875 75 100.5 C 74.835938 101.820312 74.671875 103.140625 74.5 104.5 C 73.5 103 73.5 103 73.78125 101.09375 C 74.390625 98.914062 75.457031 97.625 77 96 Z M 77 96" style="stroke:none;fill-rule:nonzero;fill:rgb(98.039216%,85.09804%,32.941177%);fill-opacity:1;"/>
<path d="M 43.5 107.5 C 44.390625 109.28125 43.265625 111.492188 42.734375 113.351562 C 42.074219 115.808594 41.90625 117.957031 42 120.5 C 41.835938 120.171875 41.671875 119.839844 41.5 119.5 C 41.003906 119.335938 40.511719 119.171875 40 119 C 40.164062 118.339844 40.328125 117.679688 40.5 117 C 40.664062 117 40.828125 117 41 117 C 41.011719 116.691406 41.027344 116.382812 41.039062 116.0625 C 41.253906 112.84375 42.015625 110.359375 43.5 107.5 Z M 43.5 107.5" style="stroke:none;fill-rule:nonzero;fill:rgb(96.470588%,82.745099%,29.019609%);fill-opacity:1;"/>
<path d="M 55 109 C 55.164062 109 55.328125 109 55.5 109 C 55.527344 110.21875 55.546875 111.4375 55.5625 112.65625 C 55.574219 113.175781 55.574219 113.175781 55.585938 113.703125 C 55.605469 115.585938 55.570312 116.390625 54.5 118 C 54.5 117.671875 54.5 117.339844 54.5 117 C 54.171875 117 53.839844 117 53.5 117 C 53.5 114.691406 53.5 112.378906 53.5 110 C 53.996094 110.246094 53.996094 110.246094 54.5 110.5 C 54.664062 110.003906 54.828125 109.511719 55 109 Z M 55 109" style="stroke:none;fill-rule:nonzero;fill:rgb(95.294118%,76.862746%,18.431373%);fill-opacity:1;"/>
<path d="M 39 103 C 39.726562 104.457031 39.316406 105.480469 39.03125 107.0625 C 38.933594 107.609375 38.835938 108.15625 38.734375 108.722656 C 38.621094 109.355469 38.621094 109.355469 38.5 110 C 38.171875 110 37.839844 110 37.5 110 C 37.03125 108.496094 36.976562 108.066406 37.5 106.5 C 37.171875 106.5 36.839844 106.5 36.5 106.5 C 36.335938 107.160156 36.171875 107.820312 36 108.5 C 35.671875 108.5 35.339844 108.5 35 108.5 C 35.738281 105.996094 37.136719 104.742188 39 103 Z M 39 103" style="stroke:none;fill-rule:nonzero;fill:rgb(95.686275%,80.392158%,27.058825%);fill-opacity:1;"/>
<path d="M 72 92 C 72.328125 92 72.660156 92 73 92 C 74.097656 94.71875 73.984375 96.242188 73.007812 98.992188 C 72.472656 100.054688 71.882812 100.714844 71 101.5 C 71.5 99.5 71.5 99.5 71.765625 98.609375 C 72.050781 97.257812 72.046875 96.003906 72.03125 94.625 C 72.023438 93.886719 72.023438 93.886719 72.015625 93.132812 C 72.011719 92.757812 72.007812 92.386719 72 92 Z M 72 92" style="stroke:none;fill-rule:nonzero;fill:rgb(93.725491%,76.862746%,14.509805%);fill-opacity:1;"/>
<path d="M 42.5 90 C 42.800781 90.164062 43.097656 90.328125 43.40625 90.5 C 44.527344 91.105469 44.527344 91.105469 46 91 C 46 91.328125 46 91.660156 46 92 C 46.328125 92 46.660156 92 47 92 C 47 92.328125 47 92.660156 47 93 C 47.328125 93.164062 47.660156 93.328125 48 93.5 C 46.515625 93.335938 45.03125 93.171875 43.5 93 C 43.171875 92.011719 42.839844 91.019531 42.5 90 Z M 42.5 90" style="stroke:none;fill-rule:nonzero;fill:rgb(95.686275%,75.294119%,8.235294%);fill-opacity:1;"/>
<path d="M 65 116.5 C 65.195312 116.777344 65.390625 117.058594 65.59375 117.34375 C 66.519531 118.574219 66.519531 118.574219 67.84375 119.8125 C 69 121 69 121 69 122 C 69.328125 122.164062 69.660156 122.328125 70 122.5 C 68.84375 122.335938 67.691406 122.171875 66.5 122 C 65.695312 120.175781 65.277344 118.476562 65 116.5 Z M 65 116.5" style="stroke:none;fill-rule:nonzero;fill:rgb(96.470588%,78.431374%,17.647059%);fill-opacity:1;"/>
<path d="M 45 125.5 C 46.210938 126.710938 46.265625 127.402344 46.5625 129.0625 C 46.644531 129.515625 46.730469 129.972656 46.816406 130.441406 C 46.90625 130.964844 46.90625 130.964844 47 131.5 C 45.988281 131.199219 44.988281 130.863281 44 130.5 C 43.835938 130.171875 43.671875 129.839844 43.5 129.5 C 44.160156 129.664062 44.820312 129.828125 45.5 130 C 45.335938 128.515625 45.171875 127.03125 45 125.5 Z M 45 125.5" style="stroke:none;fill-rule:nonzero;fill:rgb(99.607843%,67.843139%,1.960784%);fill-opacity:1;"/>
<path d="M 81.5 119 C 82.035156 121.148438 82.035156 122.800781 82 125 C 81.339844 124.835938 80.679688 124.671875 80 124.5 C 80.496094 122.683594 80.988281 120.871094 81.5 119 Z M 81.5 119" style="stroke:none;fill-rule:nonzero;fill:rgb(98.431373%,71.764708%,2.745098%);fill-opacity:1;"/>
<path d="M 76.5 103.5 C 76.789062 103.882812 77.078125 104.261719 77.375 104.65625 C 78.417969 106.003906 78.417969 106.003906 79.625 106.84375 C 79.914062 107.058594 80.203125 107.277344 80.5 107.5 C 80.5 107.828125 80.5 108.160156 80.5 108.5 C 80.828125 108.5 81.160156 108.5 81.5 108.5 C 81.335938 108.828125 81.171875 109.160156 81 109.5 C 80.265625 108.882812 79.535156 108.261719 78.804688 107.644531 C 78.066406 107.054688 77.285156 106.523438 76.5 106 C 76.40625 104.6875 76.40625 104.6875 76.5 103.5 Z M 76.5 103.5" style="stroke:none;fill-rule:nonzero;fill:rgb(95.294118%,79.215688%,22.745098%);fill-opacity:1;"/>
<path d="M 73 110 C 73.328125 110 73.660156 110 74 110 C 74.660156 111.15625 75.320312 112.308594 76 113.5 C 75.671875 113.5 75.339844 113.5 75 113.5 C 75 114.324219 75 115.148438 75 116 C 74.835938 116 74.671875 116 74.5 116 C 73.914062 114.007812 73.371094 112.042969 73 110 Z M 73 110" style="stroke:none;fill-rule:nonzero;fill:rgb(92.941177%,80.000001%,27.843139%);fill-opacity:1;"/>
<path d="M 34.5 108.5 C 35.1875 110.410156 34.839844 112.035156 34.5 114 C 34.003906 113.835938 33.511719 113.671875 33 113.5 C 33.253906 111.640625 33.558594 110.132812 34.5 108.5 Z M 34.5 108.5" style="stroke:none;fill-rule:nonzero;fill:rgb(96.078432%,80.000001%,25.490198%);fill-opacity:1;"/>
<path d="M 60 102 C 60 103.554688 59.730469 104.175781 59 105.5 C 58.503906 105.5 58.011719 105.5 57.5 105.5 C 57.5 105.996094 57.5 106.488281 57.5 107 C 57.171875 107 56.839844 107 56.5 107 C 57.195312 104.78125 58.304688 103.5625 60 102 Z M 60 102" style="stroke:none;fill-rule:nonzero;fill:rgb(96.470588%,83.137256%,29.019609%);fill-opacity:1;"/>
<path d="M 52.5 93 C 54.902344 92.71875 56.121094 93.558594 58 95 C 58 95.164062 58 95.328125 58 95.5 C 57.175781 95.5 56.351562 95.5 55.5 95.5 C 55.5 95.171875 55.5 94.839844 55.5 94.5 C 55.003906 94.5 54.511719 94.5 54 94.5 C 54 94.171875 54 93.839844 54 93.5 C 53.503906 93.335938 53.011719 93.171875 52.5 93 Z M 52.5 93" style="stroke:none;fill-rule:nonzero;fill:rgb(96.470588%,85.882354%,34.509805%);fill-opacity:1;"/>
<path d="M 77 96 C 77.328125 96.328125 77.660156 96.660156 78 97 C 77.503906 97.988281 77.011719 98.980469 76.5 100 C 76.171875 99.835938 75.839844 99.671875 75.5 99.5 C 75.875 97.125 75.875 97.125 77 96 Z M 77 96" style="stroke:none;fill-rule:nonzero;fill:rgb(92.54902%,80.784315%,34.117648%);fill-opacity:1;"/>
<path d="M 55.5 84 C 56 85 56 85 56.21875 85.90625 C 56.539062 87.15625 57.003906 88.308594 57.5 89.5 C 55.917969 88.816406 55.503906 88.503906 54.5 87 C 54.9375 85.40625 54.9375 85.40625 55.5 84 Z M 55.5 84" style="stroke:none;fill-rule:nonzero;fill:rgb(96.470588%,81.960785%,31.37255%);fill-opacity:1;"/>
<path d="M 61.5 70.5 C 61.996094 70.664062 62.488281 70.828125 63 71 C 63 71.988281 63 72.980469 63 74 C 62.503906 74.164062 62.011719 74.328125 61.5 74.5 C 61.5 73.179688 61.5 71.859375 61.5 70.5 Z M 61.5 70.5" style="stroke:none;fill-rule:nonzero;fill:rgb(89.411765%,77.64706%,32.156864%);fill-opacity:1;"/>
<path d="M 58.5 89.5 C 59.65625 89.5 60.808594 89.5 62 89.5 C 62 89.996094 62 90.488281 62 91 C 62.328125 91 62.660156 91 63 91 C 62.835938 91.328125 62.671875 91.660156 62.5 92 C 61.179688 91.339844 59.859375 90.679688 58.5 90 C 58.5 89.835938 58.5 89.671875 58.5 89.5 Z M 58.5 89.5" style="stroke:none;fill-rule:nonzero;fill:rgb(98.039216%,74.509805%,18.431373%);fill-opacity:1;"/>
<path d="M 47 103 C 47 103.496094 47 103.988281 47 104.5 C 46.671875 104.828125 46.339844 105.160156 46 105.5 C 45.679688 106.535156 45.679688 106.535156 45.5 107.5 C 45.003906 107.5 44.511719 107.5 44 107.5 C 44.65625 105.53125 45.460938 104.386719 47 103 Z M 47 103" style="stroke:none;fill-rule:nonzero;fill:rgb(97.254902%,87.843138%,34.509805%);fill-opacity:1;"/>
<path d="M 61 70.5 C 61.164062 70.5 61.328125 70.5 61.5 70.5 C 61.664062 72.316406 61.828125 74.128906 62 76 C 61.503906 76 61.011719 76 60.5 76 C 60.664062 74.183594 60.828125 72.371094 61 70.5 Z M 61 70.5" style="stroke:none;fill-rule:nonzero;fill:rgb(100%,98.431373%,74.901962%);fill-opacity:1;"/>
<path d="M 74.5 121.5 C 74.996094 122.160156 75.488281 122.820312 76 123.5 C 75.699219 123.644531 75.402344 123.789062 75.09375 123.9375 C 73.902344 124.523438 73.902344 124.523438 72.5 125.5 C 73.167969 124.167969 73.832031 122.832031 74.5 121.5 Z M 74.5 121.5" style="stroke:none;fill-rule:nonzero;fill:rgb(96.470588%,60.784316%,0%);fill-opacity:1;"/>
</g>
</svg>