<svg version="1.1" viewBox="8.5 62.5 210.5 110" xmlns:xlink="http://www.w3.org/1999/xlink" xmlns="http://www.w3.org/2000/svg" style="max-height: 500px" width="210.5" height="110">
<g id="surface1">
<path d="M 61 64.5 C 62.632812 66.949219 62.21875 69.636719 62 72.5 C 61.617188 74.378906 61.109375 76.183594 60.5 78 C 62.261719 79.9375 63.8125 81.011719 66.21875 82.03125 C 71.890625 84.546875 71.890625 84.546875 73.21875 86.625 C 73.828125 89.597656 73.335938 91.691406 71.71875 94.1875 C 70.523438 95.867188 69.222656 97.445312 67.90625 99.03125 C 65.796875 101.644531 64.273438 104.007812 64.53125 107.5 C 64.921875 109.664062 65.761719 111.679688 67 113.5 C 68.367188 114.621094 68.367188 114.621094 69.71875 114.46875 C 71.519531 113.808594 72.046875 113.171875 73 111.5 C 73.582031 108.785156 73.640625 106.210938 73 103.5 C 75.523438 105.601562 76.433594 107.933594 77.5 111 C 78.597656 107.109375 76.734375 103.757812 74.933594 100.363281 C 73.898438 98.300781 73.625 96.261719 74 94 C 74.699219 92.5625 75.546875 91.28125 76.5 90 C 77.242188 90.246094 77.242188 90.246094 78 90.5 C 77.878906 90.785156 77.761719 91.070312 77.636719 91.359375 C 76.882812 93.328125 76.46875 94.6875 76.6875 96.8125 C 77.589844 98.6875 78.617188 99.722656 80.125 101.117188 C 82.722656 103.734375 83.566406 106.714844 83.625 110.3125 C 83.554688 116.207031 81.335938 120.507812 77.4375 124.84375 C 72.425781 129.558594 64.742188 131.519531 58 131.75 C 50.148438 131.480469 42.457031 128.828125 37 123 C 33.863281 119.242188 32.121094 114.664062 32.328125 109.726562 C 32.9375 105.40625 34.269531 101.078125 37.5 98 C 38.59375 97.398438 38.59375 97.398438 39.5 97 C 39.421875 97.335938 39.339844 97.675781 39.257812 98.023438 C 38.429688 102.738281 38.476562 107.34375 41 111.5 C 41.042969 111.050781 41.085938 110.605469 41.132812 110.144531 C 42.015625 102.523438 45.207031 97.671875 50.917969 92.703125 C 51.714844 91.894531 51.714844 91.894531 51.5 90 C 50.859375 89.800781 50.859375 89.800781 50.207031 89.601562 C 46.835938 88.414062 42.523438 86.875 40.59375 83.6875 C 40.050781 82.144531 39.804688 81.113281 40 79.5 C 40.351562 79.871094 40.703125 80.242188 41.0625 80.625 C 44.40625 83.820312 47.839844 84.859375 52.195312 86.179688 C 54.660156 86.953125 56.625 87.628906 58.5 89.5 C 59.378906 91.257812 58.886719 93.125 58.5 95 C 57.933594 96.550781 57.222656 98 56.46875 99.46875 C 55.082031 101.878906 55.082031 101.878906 54.5 104.5 C 54.59375 104.195312 54.683594 103.894531 54.78125 103.582031 C 55.910156 100.308594 57.5 98.21875 59.867188 95.726562 C 61.910156 93.515625 63.648438 91.304688 64.4375 88.375 C 63.839844 86.496094 62.910156 86.046875 61.222656 85.117188 C 60.820312 84.914062 60.414062 84.710938 60 84.5 C 59.546875 84.265625 59.089844 84.03125 58.621094 83.789062 C 57.417969 83.179688 56.214844 82.585938 55 82 C 54.777344 79.105469 55.285156 77.667969 56.90625 75.28125 C 59.199219 71.78125 60.5625 68.683594 61 64.5 Z M 61 64.5" style="stroke:none;fill-rule:nonzero;fill:rgb(98.823529%,74.117649%,2.352941%);fill-opacity:1;"/>
<path d="M 102 121 C 102.164062 121 102.328125 121 102.5 121 C 103.046875 127.980469 99.90625 133.789062 95.46875 139 C 85.664062 149.425781 71.3125 155.058594 57.128906 155.617188 C 47.414062 155.828125 37.691406 154.402344 30 148 C 25.914062 144.015625 25.914062 144.015625 25.5 141.5 C 25.867188 141.636719 26.234375 141.777344 26.617188 141.921875 C 27.101562 142.101562 27.589844 142.28125 28.09375 142.46875 C 28.574219 142.648438 29.058594 142.828125 29.554688 143.015625 C 46.988281 148.875 72.152344 140.246094 87.8125 132.46875 C 96.277344 128.230469 96.277344 128.230469 102 121 Z M 102 121" style="stroke:none;fill-rule:nonzero;fill:rgb(12.156863%,10.196079%,7.843138%);fill-opacity:1;"/>
<path d="M 67 85.5 C 67.328125 85.5 67.660156 85.5 68 85.5 C 69.191406 87.683594 69.507812 89.5625 69 92 C 67.441406 95.421875 65.457031 98.515625 63.09375 101.4375 C 60.71875 104.375 59.691406 107.15625 59.867188 110.953125 C 60.347656 114.699219 63.207031 116.777344 66 119 C 67.261719 119.632812 68.15625 119.550781 69.5625 119.53125 C 70.015625 119.527344 70.472656 119.523438 70.941406 119.515625 C 71.289062 119.511719 71.640625 119.507812 72 119.5 C 72.75 118.023438 73.398438 116.542969 74 115 C 74.75 115.65625 74.75 115.65625 75.5 116.5 C 75.5 116.996094 75.5 117.488281 75.5 118 C 77.355469 117.585938 78.273438 117.3125 79.40625 115.75 C 80.167969 113.507812 80.363281 111.351562 80.5 109 C 80.664062 109 80.828125 109 81 109 C 81.214844 115.226562 80.742188 119.152344 76.5 124 C 74.507812 125.992188 72.707031 127.597656 70 128.5 C 69.835938 128.828125 69.671875 129.160156 69.5 129.5 C 61.21875 132.355469 53 132.273438 44.914062 128.820312 C 39.671875 126.121094 36.441406 123.148438 34.5 117.5 C 33.210938 112.21875 34.003906 107.011719 36 102 C 36.820312 101.046875 36.820312 101.046875 37.5 100.5 C 37.335938 101.117188 37.335938 101.117188 37.171875 101.746094 C 35.613281 107.988281 35.382812 112.199219 38.5 118 C 39.164062 118.835938 39.832031 119.667969 40.5 120.5 C 40.5 120.828125 40.5 121.160156 40.5 121.5 C 40.902344 121.6875 40.902344 121.6875 41.3125 121.875 C 42.5 122.5 42.5 122.5 44.0625 123.5625 C 45.355469 124.589844 45.355469 124.589844 46.5 124.5 C 46.390625 124.128906 46.285156 123.757812 46.171875 123.375 C 44.289062 116.261719 44.027344 110.320312 47.636719 103.78125 C 48.5 102.5 48.5 102.5 49.5 102 C 49.417969 102.566406 49.335938 103.132812 49.25 103.71875 C 48.6875 108.445312 49.300781 112.382812 50.5 117 C 50.828125 117 51.160156 117 51.5 117 C 51.964844 117.648438 51.964844 117.648438 52.4375 118.3125 C 54.335938 120.738281 57.257812 121.765625 60 123 C 59.832031 122.746094 59.664062 122.492188 59.488281 122.230469 C 59.265625 121.886719 59.042969 121.542969 58.8125 121.1875 C 58.59375 120.851562 58.371094 120.515625 58.144531 120.167969 C 55.800781 115.921875 55.898438 111.089844 57.1875 106.5 C 58.546875 102.816406 61.007812 99.976562 63.5 97 C 66.25 93.621094 67.871094 91.46875 67.5 87 C 67.253906 86.257812 67.253906 86.257812 67 85.5 Z M 67 85.5" style="stroke:none;fill-rule:nonzero;fill:rgb(98.431373%,55.686277%,0.784314%);fill-opacity:1;"/>
<path d="M 89 111.5 C 92.996094 111.199219 96.753906 112.03125 99.875 114.65625 C 100.742188 116.523438 100.550781 117.53125 100 119.5 C 95.976562 127.914062 83.347656 132.175781 75.191406 135.09375 C 61.992188 139.628906 42.15625 145.515625 28.5 140 C 26.996094 139.238281 25.777344 138.554688 25 137 C 24.695312 134.476562 24.761719 133.03125 26.25 130.9375 C 27.902344 128.9375 29.851562 127.4375 32 126 C 32.328125 126.164062 32.660156 126.328125 33 126.5 C 32.789062 126.71875 32.578125 126.9375 32.359375 127.160156 C 31.046875 128.585938 30.101562 129.734375 29.40625 131.5625 C 29.378906 133.082031 29.378906 133.082031 30.46875 134.375 C 36.078125 138.496094 46.5 137.019531 52.992188 136.15625 C 55.691406 135.726562 58.347656 135.152344 61 134.5 C 61.4375 134.394531 61.878906 134.285156 62.328125 134.175781 C 72.441406 131.632812 87.277344 127.765625 93.78125 118.9375 C 94.546875 117.40625 94.894531 116.667969 94.5 115 C 92.867188 113.320312 91.234375 112.625 89 112 C 89 111.835938 89 111.671875 89 111.5 Z M 89 111.5" style="stroke:none;fill-rule:nonzero;fill:rgb(11.372549%,9.803922%,7.450981%);fill-opacity:1;"/>
<path d="M 150.78125 92.84375 C 151.164062 92.835938 151.546875 92.828125 151.9375 92.820312 C 153.277344 93.046875 153.699219 93.417969 154.5 94.5 C 154.847656 96.539062 154.953125 97.734375 153.890625 99.527344 C 148.449219 106.121094 139.960938 108.933594 132.261719 112 C 131.9375 112.128906 131.609375 112.257812 131.277344 112.390625 C 129.667969 113.027344 128.054688 113.664062 126.441406 114.289062 C 118.445312 117.421875 110.730469 120.515625 106.234375 128.242188 C 105.558594 129.398438 104.824219 130.445312 104 131.5 C 103.101562 128.714844 103.796875 126.0625 104.96875 123.460938 C 107.804688 118.46875 112.265625 115.878906 117.4375 113.78125 C 118.546875 113.308594 119.660156 112.839844 120.769531 112.367188 C 121.316406 112.136719 121.863281 111.90625 122.425781 111.667969 C 131.960938 107.621094 139.753906 103.539062 145.773438 94.832031 C 147.195312 93.207031 148.671875 92.855469 150.78125 92.84375 Z M 150.78125 92.84375" style="stroke:none;fill-rule:nonzero;fill:rgb(11.372549%,9.803922%,7.450981%);fill-opacity:1;"/>
<path d="M 136.75 124.9375 C 138 125 138 125 138.5 125.5 C 138.699219 126.84375 138.875 128.183594 139.03125 129.53125 C 139.078125 129.910156 139.121094 130.289062 139.167969 130.679688 C 139.28125 131.621094 139.390625 132.558594 139.5 133.5 C 142.394531 131.933594 144.710938 130.105469 147.175781 127.914062 C 148.625 126.914062 149.28125 126.789062 151 127 C 151.40625 128.09375 151.40625 128.09375 151.5 129.5 C 149.859375 131.332031 148.003906 132.863281 146.09375 134.40625 C 145.605469 134.800781 145.117188 135.195312 144.617188 135.601562 C 144.0625 136.046875 144.0625 136.046875 143.5 136.5 C 144.726562 137.738281 145.960938 138.960938 147.246094 140.140625 C 147.640625 140.507812 148.03125 140.871094 148.4375 141.25 C 148.839844 141.617188 149.238281 141.980469 149.652344 142.359375 C 150.5 143.5 150.5 143.5 150.378906 144.890625 C 150.253906 145.257812 150.128906 145.621094 150 146 C 149.117188 146.34375 149.117188 146.34375 148 146.5 C 147.085938 145.90625 147.085938 145.90625 146.15625 145 C 144.039062 143.019531 141.804688 141.253906 139.5 139.5 C 139.664062 139.828125 139.828125 140.160156 140 140.5 C 140.058594 141.25 140.085938 142 140.09375 142.75 C 140.101562 143.148438 140.109375 143.542969 140.117188 143.953125 C 140 145 140 145 139 146 C 138 145.9375 138 145.9375 137 145.5 C 136.046875 143.984375 135.828125 142.660156 135.683594 140.890625 C 135.640625 140.382812 135.601562 139.875 135.554688 139.351562 C 135.515625 138.824219 135.476562 138.292969 135.4375 137.75 C 135.394531 137.238281 135.351562 136.722656 135.304688 136.195312 C 135.027344 132.644531 134.800781 129.0625 135 125.5 C 135.5 125 135.5 125 136.75 124.9375 Z M 136.75 124.9375" style="stroke:none;fill-rule:nonzero;fill:rgb(21.960784%,6.27451%,3.921569%);fill-opacity:1;"/>
<path d="M 184 129 C 184.988281 129 185.980469 129 187 129 C 187.546875 132.03125 187.707031 135.019531 187.84375 138.09375 C 187.875 138.640625 187.902344 139.1875 187.933594 139.75 C 187.957031 140.273438 187.980469 140.796875 188.007812 141.335938 C 188.027344 141.808594 188.050781 142.285156 188.074219 142.777344 C 188 144 188 144 187 145.5 C 185.019531 145.863281 183.84375 145.523438 182.210938 144.441406 C 181.59375 143.988281 180.980469 143.527344 180.375 143.0625 C 180.0625 142.832031 179.75 142.601562 179.429688 142.367188 C 178.21875 141.464844 177.070312 140.570312 176 139.5 C 176.011719 139.886719 176.023438 140.269531 176.035156 140.667969 C 176.046875 141.421875 176.046875 141.421875 176.0625 142.1875 C 176.074219 142.6875 176.085938 143.183594 176.097656 143.699219 C 176 145 176 145 175 146 C 174 145.90625 174 145.90625 173 145.5 C 170.664062 142 170.488281 136.132812 171 132 C 171.328125 131.671875 171.660156 131.339844 172 131 C 173.671875 131.0625 174.351562 131.359375 175.570312 132.519531 C 175.917969 132.945312 176.265625 133.371094 176.625 133.8125 C 178.703125 136.242188 180.921875 138.125 183.5 140 C 183.496094 139.554688 183.496094 139.554688 183.492188 139.097656 C 183.480469 137.753906 183.476562 136.40625 183.46875 135.0625 C 183.464844 134.59375 183.460938 134.125 183.457031 133.640625 C 183.453125 132.96875 183.453125 132.96875 183.453125 132.285156 C 183.445312 131.664062 183.445312 131.664062 183.441406 131.03125 C 183.5 130 183.5 130 184 129 Z M 184 129" style="stroke:none;fill-rule:nonzero;fill:rgb(21.960784%,6.27451%,4.313726%);fill-opacity:1;"/>
<path d="M 163 128 C 165.882812 129.304688 167.980469 131.007812 169.203125 133.960938 C 169.898438 136.410156 169.875 138.265625 168.6875 140.59375 C 166.996094 142.59375 165.050781 144.867188 162.304688 145.101562 C 157.300781 145.183594 157.300781 145.183594 155 143.5 C 153.09375 141.59375 152.832031 139.914062 152.71875 137.3125 C 152.824219 134.28125 153.363281 132.195312 155.5 130 C 157.675781 128.148438 160.1875 127.324219 163 128 Z M 158.875 132.28125 C 157.433594 133.558594 156.890625 134.132812 156.5 136 C 156.535156 138.105469 156.6875 139.132812 158.0625 140.75 C 159.484375 141.617188 159.484375 141.617188 161.21875 141.59375 C 163.558594 140.8125 164.789062 139.640625 166 137.5 C 166.082031 135.785156 165.566406 135.101562 164.65625 133.65625 C 162.730469 131.730469 161.40625 131.0625 158.875 132.28125 Z M 158.875 132.28125" style="stroke:none;fill-rule:nonzero;fill:rgb(21.568628%,6.666667%,4.313726%);fill-opacity:1;"/>
<path d="M 122.5 126 C 124.011719 126.105469 124.496094 126.496094 125.5625 127.59375 C 127.652344 130.730469 127.847656 133.816406 127.5 137.5 C 126.820312 139.535156 125.777344 141.1875 124.078125 142.546875 C 121.582031 143.589844 118.648438 143.164062 116 143 C 115.6875 141.8125 115.6875 141.8125 115.5 140.5 C 116.695312 139.304688 117.054688 139.371094 118.6875 139.28125 C 120.042969 139.144531 120.988281 139.003906 122.25 138.46875 C 123.441406 136.929688 123.65625 135.386719 123.5 133.5 C 123.050781 132.292969 122.507812 131.175781 121.929688 130.023438 C 121.367188 128.6875 121.457031 127.835938 122 126.5 C 122.164062 126.335938 122.328125 126.171875 122.5 126 Z M 122.5 126" style="stroke:none;fill-rule:nonzero;fill:rgb(21.960784%,6.666667%,4.313726%);fill-opacity:1;"/>
<path d="M 129 127.5 C 129.988281 127.5 130.980469 127.5 132 127.5 C 133.785156 132.027344 133.644531 137.164062 133.875 141.96875 C 133.910156 142.53125 133.941406 143.089844 133.976562 143.667969 C 134.015625 144.472656 134.015625 144.472656 134.054688 145.296875 C 134.082031 145.777344 134.105469 146.261719 134.132812 146.761719 C 134 148 134 148 133.3125 148.925781 C 132.5 149.5 132.5 149.5 131.4375 149.40625 C 130.5 149 130.5 149 130 148 C 129.886719 146.898438 129.804688 145.792969 129.734375 144.6875 C 129.710938 144.355469 129.6875 144.027344 129.667969 143.683594 C 129.621094 142.984375 129.578125 142.28125 129.535156 141.578125 C 129.46875 140.519531 129.402344 139.460938 129.332031 138.398438 C 129.097656 134.765625 128.925781 131.144531 129 127.5 Z M 129 127.5" style="stroke:none;fill-rule:nonzero;fill:rgb(21.960784%,6.666667%,4.313726%);fill-opacity:1;"/>
<path d="M 190.78125 127.46875 C 191.382812 127.484375 191.382812 127.484375 192 127.5 C 194.011719 131.792969 193.644531 136.863281 193.78125 141.5 C 193.804688 142.179688 193.824219 142.859375 193.847656 143.539062 C 193.898438 145.195312 193.949219 146.847656 194 148.5 C 192.8125 149.03125 192.8125 149.03125 191.5 149.5 C 190.5 149 190.5 149 190.203125 148.183594 C 189.9375 146.636719 189.832031 145.105469 189.734375 143.539062 C 189.710938 143.203125 189.6875 142.871094 189.667969 142.527344 C 189.621094 141.824219 189.578125 141.121094 189.535156 140.417969 C 189.46875 139.351562 189.402344 138.285156 189.332031 137.21875 C 188.921875 130.765625 188.921875 130.765625 189 128 C 189.5 127.5 189.5 127.5 190.78125 127.46875 Z M 190.78125 127.46875" style="stroke:none;fill-rule:nonzero;fill:rgb(21.960784%,6.666667%,4.313726%);fill-opacity:1;"/>
<path d="M 38.5 97 C 38.828125 97.164062 39.160156 97.328125 39.5 97.5 C 39.417969 97.753906 39.339844 98.007812 39.257812 98.273438 C 38.914062 99.914062 38.914062 101.480469 38.90625 103.15625 C 38.894531 104.113281 38.894531 104.113281 38.882812 105.085938 C 39.003906 107.082031 39.382812 108.613281 40 110.5 C 38.722656 109.386719 38.378906 108.625 38 107 C 37.671875 106.835938 37.339844 106.671875 37 106.5 C 37.042969 106.144531 37.082031 105.789062 37.125 105.421875 C 37.179688 104.964844 37.230469 104.503906 37.28125 104.03125 C 37.332031 103.574219 37.386719 103.113281 37.4375 102.640625 C 37.460938 102.265625 37.480469 101.886719 37.5 101.5 C 37.335938 101.335938 37.171875 101.171875 37 101 C 36.675781 101.863281 36.351562 102.730469 36.03125 103.59375 C 35.851562 104.074219 35.671875 104.558594 35.484375 105.054688 C 33.996094 109.492188 33.90625 114.152344 35.625 118.53125 C 36.003906 119.511719 36.265625 120.476562 36.5 121.5 C 33.628906 119.007812 32.902344 115.457031 32.304688 111.804688 C 32.0625 107.109375 33.859375 102.324219 36.816406 98.742188 C 37.363281 98.148438 37.929688 97.570312 38.5 97 Z M 38.5 97" style="stroke:none;fill-rule:nonzero;fill:rgb(96.470588%,72.549021%,10.196079%);fill-opacity:1;"/>
<path d="M 40 79.5 C 40.351562 79.871094 40.703125 80.242188 41.0625 80.625 C 43.609375 83.058594 46.128906 84.355469 49.4375 85.375 C 49.78125 85.484375 50.125 85.59375 50.480469 85.710938 C 51.320312 85.976562 52.160156 86.238281 53 86.5 C 51.457031 87.382812 50.882812 87.5 49 87.5 C 49 87.003906 49 86.511719 49 86 C 48.671875 86 48.339844 86 48 86 C 48.164062 86.824219 48.328125 87.648438 48.5 88.5 C 45.289062 87.617188 42.378906 86.316406 40.5 83.5 C 40.015625 82.050781 39.867188 81.011719 40 79.5 Z M 40 79.5" style="stroke:none;fill-rule:nonzero;fill:rgb(96.862745%,75.294119%,7.450981%);fill-opacity:1;"/>
<path d="M 76.5 90 C 76.996094 90.164062 77.488281 90.328125 78 90.5 C 77.878906 90.785156 77.761719 91.070312 77.636719 91.359375 C 76.871094 93.359375 76.464844 94.6875 76.71875 96.84375 C 77.691406 98.90625 78.804688 99.988281 80.5 101.5 C 80.335938 101.828125 80.171875 102.160156 80 102.5 C 79.792969 102.253906 79.585938 102.003906 79.375 101.75 C 78.4375 100.78125 78.4375 100.78125 76.5 101 C 76.335938 101.496094 76.171875 101.988281 76 102.5 C 74.476562 99.566406 73.527344 97.320312 74 94 C 74.710938 92.566406 75.546875 91.28125 76.5 90 Z M 76.5 90" style="stroke:none;fill-rule:nonzero;fill:rgb(96.078432%,73.725492%,8.235294%);fill-opacity:1;"/>
<path d="M 38.5 121 C 41.875 121.875 41.875 121.875 43 123 C 43 123.496094 43 123.988281 43 124.5 C 43.328125 124.664062 43.660156 124.828125 44 125 C 43.835938 125.496094 43.671875 125.988281 43.5 126.5 C 43.664062 126.828125 43.828125 127.160156 44 127.5 C 44.824219 127.335938 45.648438 127.171875 46.5 127 C 46.5 127.496094 46.5 127.988281 46.5 128.5 C 46.828125 128.5 47.160156 128.5 47.5 128.5 C 47.5 128.828125 47.5 129.160156 47.5 129.5 C 43.074219 128.171875 39.183594 125.796875 36.5 122 C 36.828125 121.835938 37.160156 121.671875 37.5 121.5 C 37.5 121.828125 37.5 122.160156 37.5 122.5 C 37.828125 122.5 38.160156 122.5 38.5 122.5 C 38.5 122.003906 38.5 121.511719 38.5 121 Z M 38.5 121" style="stroke:none;fill-rule:nonzero;fill:rgb(97.254902%,56.078434%,4.313726%);fill-opacity:1;"/>
<path d="M 61 64.5 C 62.839844 67.257812 62.308594 70.953125 61.679688 74.117188 C 61.226562 75.804688 60.78125 77.433594 60 79 C 59.835938 78.835938 59.671875 78.671875 59.5 78.5 C 59.542969 77.652344 59.621094 76.808594 59.71875 75.96875 C 59.769531 75.507812 59.820312 75.050781 59.875 74.578125 C 59.914062 74.222656 59.957031 73.867188 60 73.5 C 59.835938 73.828125 59.671875 74.160156 59.5 74.5 C 59.171875 74.5 58.839844 74.5 58.5 74.5 C 58.5 74.828125 58.5 75.160156 58.5 75.5 C 58.171875 75.5 57.839844 75.5 57.5 75.5 C 57.992188 74.257812 58.492188 73.015625 59.015625 71.785156 C 60.050781 69.328125 60.769531 67.15625 61 64.5 Z M 61 64.5" style="stroke:none;fill-rule:nonzero;fill:rgb(96.470588%,74.509805%,7.450981%);fill-opacity:1;"/>
<path d="M 131.5 110 C 131.996094 110.328125 132.488281 110.660156 133 111 C 130.773438 111.246094 130.773438 111.246094 128.5 111.5 C 128.5 111.828125 128.5 112.160156 128.5 112.5 C 127.675781 112.828125 126.851562 113.160156 126 113.5 C 125.503906 113.003906 125.011719 112.511719 124.5 112 C 124.828125 112 125.160156 112 125.5 112 C 125.5 111.671875 125.5 111.339844 125.5 111 C 129.21875 109.175781 129.21875 109.175781 131.5 110 Z M 131.5 110" style="stroke:none;fill-rule:nonzero;fill:rgb(12.941177%,10.980392%,9.019608%);fill-opacity:1;"/>
<path d="M 138.5 109 C 131.421875 112.675781 131.421875 112.675781 128.5 113.5 C 128.003906 113.335938 127.511719 113.171875 127 113 C 127.46875 112.03125 127.46875 112.03125 128.5 111 C 129.632812 110.785156 130.742188 110.714844 131.890625 110.640625 C 133.355469 110.457031 134.296875 109.824219 135.5 109 C 137.28125 108.390625 137.28125 108.390625 138.5 109 Z M 138.5 109" style="stroke:none;fill-rule:nonzero;fill:rgb(7.843138%,6.666667%,4.705882%);fill-opacity:1;"/>
<path d="M 78 121.5 C 78.496094 121.664062 78.988281 121.828125 79.5 122 C 76.855469 125.390625 73.902344 128.335938 69.5 129 C 70.464844 127.867188 71.277344 127.355469 72.625 126.65625 C 74.910156 125.414062 76.394531 123.507812 78 121.5 Z M 78 121.5" style="stroke:none;fill-rule:nonzero;fill:rgb(95.294118%,70.19608%,12.156863%);fill-opacity:1;"/>
<path d="M 76.5 90 C 76.996094 90.164062 77.488281 90.328125 78 90.5 C 77.835938 90.960938 77.835938 90.960938 77.671875 91.429688 C 77.53125 91.835938 77.394531 92.238281 77.25 92.65625 C 77.109375 93.054688 76.972656 93.457031 76.828125 93.867188 C 76.429688 95.042969 76.429688 95.042969 76.5 96.5 C 76.171875 96.5 75.839844 96.5 75.5 96.5 C 75.5 95.839844 75.5 95.179688 75.5 94.5 C 75.171875 94.5 74.839844 94.5 74.5 94.5 C 74.5 95.65625 74.5 96.808594 74.5 98 C 74.335938 98 74.171875 98 74 98 C 73.691406 94.546875 74.445312 92.761719 76.5 90 Z M 76.5 90" style="stroke:none;fill-rule:nonzero;fill:rgb(94.901961%,74.117649%,13.333334%);fill-opacity:1;"/>
<path d="M 73 103.5 C 75.191406 105.511719 76.894531 107.367188 77.09375 110.4375 C 77.0625 110.789062 77.03125 111.140625 77 111.5 C 76 110 76 110 75.5 109 C 75.003906 109 74.511719 109 74 109 C 73.671875 107.183594 73.339844 105.371094 73 103.5 Z M 73 103.5" style="stroke:none;fill-rule:nonzero;fill:rgb(94.509804%,74.509805%,13.333334%);fill-opacity:1;"/>
<path d="M 42 104.5 C 42.164062 104.5 42.328125 104.5 42.5 104.5 C 42.5 105.820312 42.5 107.140625 42.5 108.5 C 42.828125 108.5 43.160156 108.5 43.5 108.5 C 44.234375 110.40625 43.714844 111.644531 43 113.5 C 42.503906 113.171875 42.011719 112.839844 41.5 112.5 C 41.335938 111.160156 41.335938 111.160156 41.375 109.5625 C 41.386719 108.777344 41.386719 108.777344 41.398438 107.972656 C 41.484375 106.738281 41.644531 105.679688 42 104.5 Z M 42 104.5" style="stroke:none;fill-rule:nonzero;fill:rgb(97.254902%,72.941178%,6.27451%);fill-opacity:1;"/>
<path d="M 57 75.5 C 57.164062 75.828125 57.328125 76.160156 57.5 76.5 C 57.335938 76.996094 57.171875 77.488281 57 78 C 57.328125 78 57.660156 78 58 78 C 58 78.328125 58 78.660156 58 79 C 57.175781 79 56.351562 79 55.5 79 C 55.5 79.824219 55.5 80.648438 55.5 81.5 C 56.984375 81.996094 58.46875 82.488281 60 83 C 60 83.328125 60 83.660156 60 84 C 58.101562 83.5 56.640625 83.09375 55 82 C 54.699219 79.777344 54.863281 78.734375 56 76.78125 C 56.328125 76.359375 56.660156 75.9375 57 75.5 Z M 57 75.5" style="stroke:none;fill-rule:nonzero;fill:rgb(95.294118%,74.901962%,9.411765%);fill-opacity:1;"/>
<path d="M 25.5 132.5 C 25.828125 132.828125 26.160156 133.160156 26.5 133.5 C 26.3125 135.0625 26.3125 135.0625 26 136.5 C 26.328125 136.5 26.660156 136.5 27 136.5 C 27 136.996094 27 137.488281 27 138 C 27.660156 138.328125 28.320312 138.660156 29 139 C 28.835938 139.328125 28.671875 139.660156 28.5 140 C 25.5625 138.125 25.5625 138.125 25 137 C 24.90625 135.65625 24.957031 134.351562 25 133 C 25.164062 132.835938 25.328125 132.671875 25.5 132.5 Z M 25.5 132.5" style="stroke:none;fill-rule:nonzero;fill:rgb(9.411765%,7.843138%,6.27451%);fill-opacity:1;"/>
<path d="M 80.5 109 C 80.664062 109 80.828125 109 81 109 C 81.027344 110.230469 81.046875 111.457031 81.0625 112.6875 C 81.070312 113.035156 81.078125 113.386719 81.085938 113.746094 C 81.097656 114.664062 81.050781 115.582031 81 116.5 C 79.929688 117.570312 79.433594 117.714844 78 118 C 78.320312 117.441406 78.640625 116.886719 78.96875 116.3125 C 80.179688 113.925781 80.390625 111.644531 80.5 109 Z M 80.5 109" style="stroke:none;fill-rule:nonzero;fill:rgb(96.470588%,60.000002%,0%);fill-opacity:1;"/>
<path d="M 81.5 116.5 C 81.828125 116.5 82.160156 116.5 82.5 116.5 C 81.886719 118.527344 81.152344 120.222656 80 122 C 79.503906 121.835938 79.011719 121.671875 78.5 121.5 C 79.101562 120.253906 79.726562 119.160156 80.5 118 C 80.828125 118 81.160156 118 81.5 118 C 81.5 117.503906 81.5 117.011719 81.5 116.5 Z M 81.5 116.5" style="stroke:none;fill-rule:nonzero;fill:rgb(95.686275%,75.294119%,8.627451%);fill-opacity:1;"/>
<path d="M 104 126 C 104.328125 126 104.660156 126 105 126 C 105 126.496094 105 126.988281 105 127.5 C 105.660156 127.171875 106.320312 126.839844 107 126.5 C 106.175781 128.148438 105.351562 129.800781 104.5 131.5 C 103.367188 129.234375 103.535156 128.410156 104 126 Z M 104 126" style="stroke:none;fill-rule:nonzero;fill:rgb(7.843138%,6.666667%,5.490196%);fill-opacity:1;"/>
<path d="M 75.5 135 C 74.199219 135.433594 72.898438 135.859375 71.59375 136.28125 C 71.039062 136.464844 71.039062 136.464844 70.476562 136.65625 C 67.671875 137.554688 67.671875 137.554688 66 137 C 67.542969 135.972656 68.683594 135.609375 70.46875 135.15625 C 71.25 134.953125 71.25 134.953125 72.046875 134.742188 C 73.433594 134.511719 74.191406 134.53125 75.5 135 Z M 75.5 135" style="stroke:none;fill-rule:nonzero;fill:rgb(9.411765%,7.450981%,4.705882%);fill-opacity:1;"/>
<path d="M 33.5 113.5 C 34.375 114.8125 34.808594 115.746094 35.28125 117.21875 C 35.46875 117.789062 35.46875 117.789062 35.65625 118.375 C 35.972656 119.410156 36.25 120.445312 36.5 121.5 C 34.957031 120.109375 34.0625 119.011719 33.5 117 C 33.460938 115.832031 33.453125 114.664062 33.5 113.5 Z M 33.5 113.5" style="stroke:none;fill-rule:nonzero;fill:rgb(97.254902%,67.843139%,10.196079%);fill-opacity:1;"/>
<path d="M 57 88.5 C 58.96875 90.160156 58.96875 90.160156 59.125 91.875 C 59.082031 92.246094 59.042969 92.617188 59 93 C 58.175781 93 57.351562 93 56.5 93 C 56.675781 92.535156 56.851562 92.070312 57.03125 91.59375 C 57.660156 90.011719 57.660156 90.011719 57 88.5 Z M 57 88.5" style="stroke:none;fill-rule:nonzero;fill:rgb(96.470588%,72.941178%,9.803922%);fill-opacity:1;"/>
<path d="M 61 64.5 C 62.210938 66.316406 62.105469 67.191406 62.0625 69.34375 C 62.054688 69.933594 62.042969 70.523438 62.035156 71.132812 C 62.019531 71.808594 62.019531 71.808594 62 72.5 C 61.835938 72.5 61.671875 72.5 61.5 72.5 C 61.5 71.511719 61.5 70.519531 61.5 69.5 C 61.171875 69.5 60.839844 69.5 60.5 69.5 C 60.664062 67.851562 60.828125 66.199219 61 64.5 Z M 61 64.5" style="stroke:none;fill-rule:nonzero;fill:rgb(93.333334%,72.156864%,16.862746%);fill-opacity:1;"/>
<path d="M 148 142 C 148.96875 142.34375 148.96875 142.34375 150 143 C 150.4375 144.25 150.4375 144.25 150.5 145.5 C 150.171875 145.828125 149.839844 146.160156 149.5 146.5 C 149.003906 146.335938 148.511719 146.171875 148 146 C 148.164062 145.503906 148.328125 145.011719 148.5 144.5 C 148.304688 143.179688 148.304688 143.179688 148 142 Z M 148 142" style="stroke:none;fill-rule:nonzero;fill:rgb(20%,8.627451%,7.058824%);fill-opacity:1;"/>
<path d="M 78 106 C 78.496094 106.246094 78.496094 106.246094 79 106.5 C 79 107.324219 79 108.148438 79 109 C 79.496094 109 79.988281 109 80.5 109 C 80.335938 109.660156 80.171875 110.320312 80 111 C 79.503906 111 79.011719 111 78.5 111 C 77.980469 109.308594 77.960938 107.761719 78 106 Z M 78 106" style="stroke:none;fill-rule:nonzero;fill:rgb(97.254902%,73.333335%,9.411765%);fill-opacity:1;"/>
<path d="M 43.5 126.5 C 43.664062 126.828125 43.828125 127.160156 44 127.5 C 44.824219 127.335938 45.648438 127.171875 46.5 127 C 46.5 127.496094 46.5 127.988281 46.5 128.5 C 46.828125 128.5 47.160156 128.5 47.5 128.5 C 47.5 128.828125 47.5 129.160156 47.5 129.5 C 45.542969 128.921875 44.0625 128.324219 42.5 127 C 42.828125 126.835938 43.160156 126.671875 43.5 126.5 Z M 43.5 126.5" style="stroke:none;fill-rule:nonzero;fill:rgb(94.117647%,56.862748%,10.196079%);fill-opacity:1;"/>
<path d="M 53.5 104 C 53.980469 105.441406 54.054688 106.347656 54.03125 107.84375 C 54.027344 108.246094 54.023438 108.652344 54.015625 109.070312 C 54.011719 109.375 54.007812 109.683594 54 110 C 52.289062 108.507812 52.210938 107.238281 52 105 C 52.496094 105 52.988281 105 53.5 105 C 53.5 104.671875 53.5 104.339844 53.5 104 Z M 53.5 104" style="stroke:none;fill-rule:nonzero;fill:rgb(96.078432%,73.725492%,8.235294%);fill-opacity:1;"/>
<path d="M 52.5 92 C 52.40625 92.90625 52.40625 92.90625 52 94 C 50.78125 94.90625 50.78125 94.90625 49.5 95.5 C 49.171875 95.335938 48.839844 95.171875 48.5 95 C 48.976562 94.496094 49.457031 93.996094 49.9375 93.5 C 50.203125 93.222656 50.472656 92.941406 50.746094 92.65625 C 51.5 92 51.5 92 52.5 92 Z M 52.5 92" style="stroke:none;fill-rule:nonzero;fill:rgb(97.647059%,81.960785%,5.490196%);fill-opacity:1;"/>
<path d="M 40 79.5 C 42.4375 81.875 42.4375 81.875 43 83 C 42.503906 83 42.011719 83 41.5 83 C 41.335938 83.328125 41.171875 83.660156 41 84 C 40.070312 82.433594 39.898438 81.3125 40 79.5 Z M 40 79.5" style="stroke:none;fill-rule:nonzero;fill:rgb(94.901961%,73.333335%,17.647059%);fill-opacity:1;"/>
<path d="M 132.5 107 C 132.828125 107.164062 133.160156 107.328125 133.5 107.5 C 131.816406 108.914062 130.0625 109.75 128 110.5 C 127.503906 110.335938 127.011719 110.171875 126.5 110 C 127.476562 109.484375 128.457031 108.976562 129.4375 108.46875 C 129.984375 108.183594 130.527344 107.898438 131.089844 107.609375 C 131.789062 107.308594 131.789062 107.308594 132.5 107 Z M 132.5 107" style="stroke:none;fill-rule:nonzero;fill:rgb(8.627451%,7.058824%,5.490196%);fill-opacity:1;"/>
<path d="M 41.5 83 C 42.324219 83 43.148438 83 44 83 C 44 83.824219 44 84.648438 44 85.5 C 43.175781 85.335938 42.351562 85.171875 41.5 85 C 41.5 84.339844 41.5 83.679688 41.5 83 Z M 41.5 83" style="stroke:none;fill-rule:nonzero;fill:rgb(98.431373%,76.862746%,4.313726%);fill-opacity:1;"/>
<path d="M 37 119.5 C 38.0625 119.96875 38.0625 119.96875 39 120.5 C 38.835938 121.160156 38.671875 121.820312 38.5 122.5 C 38.171875 122.5 37.839844 122.5 37.5 122.5 C 37.5 122.171875 37.5 121.839844 37.5 121.5 C 37.171875 121.5 36.839844 121.5 36.5 121.5 C 36.335938 121.003906 36.171875 120.511719 36 120 C 36.328125 119.835938 36.660156 119.671875 37 119.5 Z M 37 119.5" style="stroke:none;fill-rule:nonzero;fill:rgb(99.215686%,54.509807%,2.352941%);fill-opacity:1;"/>
<path d="M 73.5 109.5 C 73.664062 109.5 73.828125 109.5 74 109.5 C 74 110.820312 74 112.140625 74 113.5 C 73.011719 113.996094 73.011719 113.996094 72 114.5 C 72.394531 112.792969 72.9375 111.15625 73.5 109.5 Z M 73.5 109.5" style="stroke:none;fill-rule:nonzero;fill:rgb(96.078432%,74.509805%,10.980392%);fill-opacity:1;"/>
<path d="M 63.5 137.5 C 63.5 137.828125 63.5 138.160156 63.5 138.5 C 61.683594 138.828125 59.871094 139.160156 58 139.5 C 58 139.171875 58 138.839844 58 138.5 C 59.914062 137.597656 61.390625 137.402344 63.5 137.5 Z M 63.5 137.5" style="stroke:none;fill-rule:nonzero;fill:rgb(8.627451%,7.450981%,4.705882%);fill-opacity:1;"/>
<path d="M 64.5 99.5 C 65.160156 99.664062 65.820312 99.828125 66.5 100 C 65.964844 101.457031 65.609375 102.390625 64.5 103.5 C 64.5 102.179688 64.5 100.859375 64.5 99.5 Z M 64.5 99.5" style="stroke:none;fill-rule:nonzero;fill:rgb(96.078432%,71.764708%,9.803922%);fill-opacity:1;"/>
</g>
</svg>